<svg width="70" height="70" viewBox="0 0 70 70" fill="none" xmlns="http://www.w3.org/2000/svg">
<path fill-rule="evenodd" clip-rule="evenodd" d="M42.5001 10C44.9853 10 47.0001 7.98528 47.0001 5.5C47.0001 3.01472 44.9853 1 42.5001 1C40.0148 1 38.0001 3.01472 38.0001 5.5C38.0001 7.98528 40.0148 10 42.5001 10ZM24.5001 65C26.9853 65 29.0001 62.9853 29.0001 60.5C29.0001 58.0147 26.9853 56 24.5001 56C22.0148 56 20.0001 58.0147 20.0001 60.5C20.0001 62.9853 22.0148 65 24.5001 65ZM55.0001 61.5C55.0001 63.9853 52.9853 66 50.5001 66C48.0148 66 46.0001 63.9853 46.0001 61.5C46.0001 59.0147 48.0148 57 50.5001 57C52.9853 57 55.0001 59.0147 55.0001 61.5ZM31.0001 14C32.6569 14 34.0001 12.6569 34.0001 11C34.0001 9.34315 32.6569 8 31.0001 8C29.3432 8 28.0001 9.34315 28.0001 11C28.0001 12.6569 29.3432 14 31.0001 14ZM67.0001 30C67.0001 31.6569 65.6569 33 64.0001 33C62.3432 33 61.0001 31.6569 61.0001 30C61.0001 28.3431 62.3432 27 64.0001 27C65.6569 27 67.0001 28.3431 67.0001 30ZM50.0001 56C51.6569 56 53.0001 54.6569 53.0001 53C53.0001 52.4974 52.8764 52.0236 52.658 51.6075C56.1578 50.0748 59.9979 47.5509 62.6338 42.58C64.242 39.5474 63.7361 35.8268 61.3767 33.3335C59.0173 30.8402 55.3303 30.1301 52.2136 31.5685C51.582 31.86 50.969 32.133 50.3729 32.389C51.2222 31.7415 52.0845 31.0891 52.9656 30.4228L53.186 30.2561L53.1861 30.2561C56.2733 27.9216 59.5757 25.4245 63.1225 22.5315C63.6004 22.1418 64.198 21.6237 64.7527 21.0124C65.0304 20.7062 65.4307 20.2319 65.8151 19.6133C66.1473 19.0787 66.8136 17.8951 67.0292 16.2417C67.285 14.2803 66.8566 11.7594 64.9762 9.69546C63.3761 7.93923 61.4984 7.38793 60.622 7.19773C58.9656 6.83828 57.5324 7.06795 57.1164 7.13462L57.1033 7.13672C55.1137 7.45519 52.4125 8.46926 50.4184 9.25066C45.8251 11.0505 39.9904 13.6758 37.609 14.7545C35.0055 15.9339 32.5395 16.1455 28.4517 16.4952C24.5805 16.8263 19.2711 17.2969 13.7425 20.3051C9.86149 22.4168 8.42722 27.2748 10.5389 31.1558C12.5152 34.7879 16.8968 36.277 20.6318 34.7221C17.8904 36.5433 15.0717 38.3461 12.1831 40.1876L12.1808 40.1889L12.0812 40.2441C11.9755 40.3027 11.8238 40.3868 11.6833 40.4654C11.2528 40.7065 10.6572 41.0469 9.99452 41.4597C8.8 42.2037 6.86872 43.4961 5.28548 45.2144C5.05872 45.4605 4.51647 46.0647 4.03506 46.9305L4.02231 46.9533C3.79825 47.3507 1.97027 50.5935 3.79513 54.3896C5.88442 58.7357 10.2257 58.9312 10.7546 58.9533C11.8776 59.0003 12.7658 58.8013 13.0698 58.7309C14.2336 58.4611 15.4129 57.9233 15.8528 57.7226L15.8529 57.7226L15.8901 57.7056C16.5542 57.4031 17.237 57.0669 17.7092 56.833L17.9433 56.7169L18.1556 56.6117C21.6221 55.3602 24.5451 54.5622 27.2356 53.9896C27.4478 54.4479 27.7067 54.8927 28.0133 55.3175C30.5992 58.9 35.5997 59.7079 39.1822 57.1221C41.6444 55.3449 43.9121 54.6084 47.06 53.5999C47.338 54.9693 48.5487 56 50.0001 56ZM46.0001 58C46.0001 59.1046 45.1046 60 44.0001 60C42.8955 60 42.0001 59.1046 42.0001 58C42.0001 56.8954 42.8955 56 44.0001 56C45.1046 56 46.0001 56.8954 46.0001 58ZM18.4262 56.4804C18.4244 56.4816 18.3997 56.4935 18.3578 56.5126C18.4071 56.4889 18.428 56.4793 18.4262 56.4804Z" fill="#FFF0F3"/>
<circle cx="35.137" cy="16" r="5" fill="#FE4954"/>
<path d="M43 20L45 31L38.4051 27.3728L38 37.5L41.5 48L44.5 59L40 48.5L35 39.5L30 48.5L25.5 59L28.5 48L32 37.5L31.5949 27.3728L25 31L27 20L25.2586 29.6423L31.5 25C33.6688 23.7607 36.3312 23.7607 38.5 25L44.7414 29.6423L43 20Z" fill="#FE4954"/>
<path d="M38 37.5L35 39.5M38 37.5L38.5 25M38 37.5L41.5 48L44.5 59L40 48.5L35 39.5M38.5 25L44.7414 29.6423L43 20L45 31L35 25.5L25 31L27 20L25.2586 29.6423L31.5 25M38.5 25V25C36.3312 23.7607 33.6688 23.7607 31.5 25V25M35 39.5L32 37.5M35 39.5L30 48.5L25.5 59L28.5 48L32 37.5M32 37.5L31.5 25" stroke="#FE4954" stroke-width="4" stroke-linecap="round" stroke-linejoin="round"/>
<path fill-rule="evenodd" clip-rule="evenodd" d="M52 14C51.4477 14 51 14.4477 51 15V19H47C46.4477 19 46 19.4477 46 20C46 20.5523 46.4477 21 47 21H51V25C51 25.5523 51.4477 26 52 26H53C53.5523 26 54 25.5523 54 25V15C54 14.4477 53.5523 14 53 14H52ZM55 17C55 16.4477 55.4477 16 56 16H57C57.5523 16 58 16.4477 58 17V19H59C59.5523 19 60 19.4477 60 20C60 20.5523 59.5523 21 59 21H58V23C58 23.5523 57.5523 24 57 24H56C55.4477 24 55 23.5523 55 23V17Z" fill="#FE4954"/>
<path fill-rule="evenodd" clip-rule="evenodd" d="M18 14C18.5523 14 19 14.4477 19 15V19H23C23.5523 19 24 19.4477 24 20C24 20.5523 23.5523 21 23 21H19V25C19 25.5523 18.5523 26 18 26H17C16.4477 26 16 25.5523 16 25V15C16 14.4477 16.4477 14 17 14H18ZM15 17C15 16.4477 14.5523 16 14 16H13C12.4477 16 12 16.4477 12 17V19H11C10.4477 19 10 19.4477 10 20C10 20.5523 10.4477 21 11 21H12V23C12 23.5523 12.4477 24 13 24H14C14.5523 24 15 23.5523 15 23V17Z" fill="#FE4954"/>
</svg>
