<svg width="70" height="70" viewBox="0 0 70 70" fill="none" xmlns="http://www.w3.org/2000/svg">
<circle cx="35.137" cy="16" r="5" fill="#97969E"/>
<path d="M43 20L45 31L38.4051 27.3728L38 37.5L41.5 48L44.5 59L40 48.5L35 39.5L30 48.5L25.5 59L28.5 48L32 37.5L31.5949 27.3728L25 31L27 20L25.2586 29.6423L31.5 25C33.6688 23.7607 36.3312 23.7607 38.5 25L44.7414 29.6423L43 20Z" fill="#97969E"/>
<path d="M38 37.5L35 39.5M38 37.5L38.5 25M38 37.5L41.5 48L44.5 59L40 48.5L35 39.5M38.5 25L44.7414 29.6423L43 20L45 31L35 25.5L25 31L27 20L25.2586 29.6423L31.5 25M38.5 25V25C36.3312 23.7607 33.6688 23.7607 31.5 25V25M35 39.5L32 37.5M35 39.5L30 48.5L25.5 59L28.5 48L32 37.5M32 37.5L31.5 25" stroke="#97969E" stroke-width="4" stroke-linecap="round" stroke-linejoin="round"/>
<path fill-rule="evenodd" clip-rule="evenodd" d="M52 14C51.4477 14 51 14.4477 51 15V19H47C46.4477 19 46 19.4477 46 20C46 20.5523 46.4477 21 47 21H51V25C51 25.5523 51.4477 26 52 26H53C53.5523 26 54 25.5523 54 25V15C54 14.4477 53.5523 14 53 14H52ZM55 17C55 16.4477 55.4477 16 56 16H57C57.5523 16 58 16.4477 58 17V19H59C59.5523 19 60 19.4477 60 20C60 20.5523 59.5523 21 59 21H58V23C58 23.5523 57.5523 24 57 24H56C55.4477 24 55 23.5523 55 23V17Z" fill="#97969E"/>
<path fill-rule="evenodd" clip-rule="evenodd" d="M18 14C18.5523 14 19 14.4477 19 15V19H23C23.5523 19 24 19.4477 24 20C24 20.5523 23.5523 21 23 21H19V25C19 25.5523 18.5523 26 18 26H17C16.4477 26 16 25.5523 16 25V15C16 14.4477 16.4477 14 17 14H18ZM15 17C15 16.4477 14.5523 16 14 16H13C12.4477 16 12 16.4477 12 17V19H11C10.4477 19 10 19.4477 10 20C10 20.5523 10.4477 21 11 21H12V23C12 23.5523 12.4477 24 13 24H14C14.5523 24 15 23.5523 15 23V17Z" fill="#97969E"/>
</svg>
