<svg width="20" height="24" viewBox="0 0 20 24" fill="none" xmlns="http://www.w3.org/2000/svg">
<path d="M14.5135 0C14.6238 1.38896 14.1828 2.77791 13.2899 3.84719C12.4191 4.92749 11.1073 5.5448 9.71832 5.53378C9.63014 4.17789 10.0821 2.84405 10.975 1.82989C11.8789 0.793689 13.1466 0.143305 14.5135 0Z" fill="#31353E"/>
<path d="M18.9012 8.19042C17.3028 9.17151 16.3217 10.8912 16.2997 12.7652C16.2997 14.8817 17.5674 16.7887 19.5295 17.6155C19.1547 18.8281 18.5925 19.9855 17.854 21.0217C16.8729 22.4989 15.8367 23.9429 14.1942 23.965C13.4125 23.9812 12.8866 23.7574 12.3391 23.5246C11.7672 23.2813 11.1718 23.028 10.2368 23.028C9.2491 23.028 8.62632 23.2882 8.02458 23.5396C7.50472 23.7568 7.00056 23.9674 6.29036 23.9981C4.72503 24.0642 3.5345 22.4327 2.50932 20.9666C0.469978 17.9792 -1.1174 12.5557 1.01013 8.86285C2.01326 7.06603 3.87623 5.91959 5.93761 5.85345C6.82551 5.83469 7.67794 6.1777 8.42449 6.4781C8.99408 6.7073 9.50203 6.9117 9.91708 6.9117C10.2796 6.9117 10.7709 6.71697 11.3443 6.48968C12.2528 6.12955 13.3674 5.6877 14.5028 5.80935C16.2556 5.86447 17.887 6.74635 18.9012 8.19042Z" fill="#31353E"/>
</svg>
