<svg width="158" height="47" viewBox="0 0 158 47" fill="none" xmlns="http://www.w3.org/2000/svg">
<g clip-path="url(#clip0)">
<path d="M146.929 0H11.0708C10.6526 0 10.2344 0 9.80458 0C9.44446 0 9.09595 0.0116168 8.73583 0.0116168C7.95751 0.0232336 7.17918 0.0929344 6.41247 0.220719C5.64576 0.348504 4.90229 0.592457 4.20528 0.952577C3.50827 1.30108 2.86935 1.76575 2.32336 2.32336C1.76575 2.86935 1.30108 3.50827 0.952578 4.20528C0.604074 4.90229 0.360121 5.64576 0.220719 6.41247C0.0929345 7.17918 0.0232336 7.9575 0.0116168 8.73583C0.0116168 9.09595 0 9.45607 0 9.80457V36.8833C0 37.2434 0.0116168 37.5919 0.0232336 37.9521C0.0348504 38.7304 0.104551 39.5087 0.232336 40.2754C0.360121 41.0421 0.604074 41.7972 0.964195 42.4826C1.3127 43.1796 1.77737 43.8069 2.33498 44.3529C2.88097 44.9105 3.51989 45.3636 4.2169 45.7237C4.91391 46.0722 5.65738 46.3278 6.42409 46.4556C7.1908 46.5833 7.96912 46.653 8.74745 46.6647C9.09595 46.6879 9.44446 46.6995 9.80458 46.6995C10.2344 46.6995 10.6526 46.6995 11.0708 46.6995H146.929C147.347 46.6995 147.766 46.6995 148.184 46.6995C148.532 46.6995 148.904 46.6995 149.253 46.6879C150.031 46.6763 150.809 46.6066 151.576 46.4788C152.343 46.351 153.098 46.0954 153.795 45.7469C154.492 45.3984 155.119 44.9338 155.677 44.3761C156.234 43.8302 156.687 43.1912 157.047 42.5058C157.396 41.8088 157.64 41.0654 157.768 40.2987C157.895 39.5319 157.965 38.7536 157.988 37.9753C157.988 37.6152 157.988 37.2667 157.988 36.9065C158 36.4883 158 36.0701 158 35.6403V11.0824C158 10.6526 158 10.2344 157.988 9.81619C157.988 9.45607 157.988 9.10757 157.988 8.74745C157.977 7.96912 157.907 7.1908 157.768 6.42409C157.64 5.65738 157.396 4.91391 157.047 4.2169C156.327 2.82288 155.189 1.68444 153.795 0.964194C153.098 0.61569 152.354 0.371737 151.576 0.232336C150.809 0.104551 150.031 0.0348504 149.253 0.0232336C148.904 0.0232336 148.532 0.0116168 148.184 0.0116168C147.777 0 147.347 0 146.929 0Z" fill="#22272B"/>
<path d="M34.3791 23.5822C34.4024 21.6073 35.4363 19.7951 37.1207 18.7612C36.052 17.2394 34.3327 16.3101 32.4856 16.252C30.534 16.0429 28.6404 17.4137 27.653 17.4137C26.6424 17.4137 25.1089 16.2636 23.4594 16.2985C21.287 16.3682 19.3238 17.5763 18.2666 19.4698C16.0246 23.3615 17.6974 29.0769 19.8465 32.2251C20.9269 33.7701 22.1815 35.4894 23.8311 35.4197C25.4458 35.35 26.0499 34.3974 27.9899 34.3974C29.9183 34.3974 30.4759 35.4197 32.1603 35.3849C33.8912 35.3616 34.9832 33.8398 36.0171 32.2832C36.7954 31.1912 37.3879 29.9714 37.7829 28.6936C35.7151 27.8223 34.3791 25.8126 34.3791 23.5822Z" fill="white"/>
<path d="M31.2069 14.1842C32.1479 13.0574 32.6126 11.5937 32.4964 10.1299C31.0559 10.281 29.72 10.9664 28.7674 12.0583C27.8264 13.1271 27.3501 14.5327 27.4431 15.9616C28.9068 15.9732 30.2892 15.3227 31.2069 14.1842Z" fill="white"/>
<path d="M54.743 31.5285H49.2483L47.9239 35.4318H45.6006L50.8049 21.0037H53.2212L58.4255 35.4318H56.0557L54.743 31.5285ZM49.8175 29.7279H54.1738L52.0247 23.3968H51.9666L49.8175 29.7279Z" fill="white"/>
<path d="M69.6826 30.1688C69.6826 33.4331 67.9284 35.5358 65.2914 35.5358C63.9322 35.6055 62.6428 34.8969 61.9806 33.7003H61.9342V38.9046H59.7734V24.9064H61.8645V26.6606H61.8993C62.5847 25.4756 63.8742 24.7554 65.2449 24.8019C67.9284 24.8019 69.6826 26.9045 69.6826 30.1688ZM67.4638 30.1688C67.4638 28.0429 66.3602 26.6373 64.6873 26.6373C63.0378 26.6373 61.9225 28.0662 61.9225 30.1688C61.9225 32.2831 63.0378 33.7119 64.6873 33.7119C66.3602 33.7119 67.4638 32.3179 67.4638 30.1688Z" fill="white"/>
<path d="M81.253 30.1688C81.253 33.4331 79.4988 35.5358 76.8618 35.5358C75.5027 35.6055 74.2132 34.8969 73.551 33.7003H73.5046V38.9046H71.3555V24.9064H73.4465V26.6606H73.4813C74.1667 25.4756 75.4562 24.7554 76.827 24.8019C79.4988 24.8019 81.253 26.9045 81.253 30.1688ZM79.0342 30.1688C79.0342 28.0429 77.9306 26.6373 76.2578 26.6373C74.6082 26.6373 73.493 28.0662 73.493 30.1688C73.493 32.2831 74.6082 33.7119 76.2578 33.7119C77.9422 33.7119 79.0342 32.3179 79.0342 30.1688Z" fill="white"/>
<path d="M88.9074 31.4118C89.07 32.8407 90.4524 33.7817 92.3576 33.7817C94.1814 33.7817 95.4825 32.8407 95.4825 31.5513C95.4825 30.436 94.6926 29.7623 92.8223 29.2976L90.952 28.8445C88.3033 28.2056 87.0719 26.9626 87.0719 24.9529C87.0719 22.4669 89.2443 20.7592 92.3227 20.7592C95.3663 20.7592 97.4574 22.4669 97.5271 24.9529H95.3431C95.2153 23.5124 94.0188 22.6412 92.2879 22.6412C90.557 22.6412 89.3604 23.524 89.3604 24.8019C89.3604 25.8242 90.1155 26.4166 91.9742 26.8813L93.5657 27.2763C96.528 27.9733 97.7594 29.1698 97.7594 31.2724C97.7594 33.9675 95.6103 35.6636 92.195 35.6636C89.0003 35.6636 86.8396 34.014 86.7002 31.4002L88.9074 31.4118Z" fill="white"/>
<path d="M102.43 22.4204V24.9064H104.428V26.6141H102.43V32.4109C102.43 33.317 102.825 33.7352 103.708 33.7352C103.941 33.7352 104.185 33.7119 104.417 33.6887V35.3848C104.022 35.4545 103.615 35.4893 103.22 35.4893C101.094 35.4893 100.258 34.6877 100.258 32.6548V26.6257H98.7246V24.918H100.258V22.4204H102.43Z" fill="white"/>
<path d="M105.59 30.1689C105.59 26.8581 107.541 24.7787 110.573 24.7787C113.629 24.7787 115.557 26.8581 115.557 30.1689C115.557 33.4913 113.629 35.559 110.573 35.559C107.518 35.559 105.59 33.4913 105.59 30.1689ZM113.361 30.1689C113.361 27.9036 112.316 26.556 110.573 26.556C108.831 26.556 107.785 27.9036 107.785 30.1689C107.785 32.4457 108.819 33.7817 110.573 33.7817C112.328 33.7817 113.361 32.4457 113.361 30.1689Z" fill="white"/>
<path d="M117.346 24.9065H119.402V26.6955H119.448C119.739 25.5454 120.796 24.7555 121.981 24.7903C122.225 24.7903 122.48 24.8136 122.724 24.8716V26.893C122.411 26.8 122.085 26.7536 121.76 26.7652C120.564 26.7187 119.541 27.6481 119.495 28.8562C119.495 28.9724 119.495 29.0769 119.506 29.1931V35.4313H117.346V24.9065Z" fill="white"/>
<path d="M132.669 32.3412C132.378 34.2463 130.52 35.559 128.138 35.559C125.083 35.559 123.178 33.5145 123.178 30.2153C123.178 26.9161 125.083 24.7787 128.045 24.7787C130.949 24.7787 132.785 26.7767 132.785 29.9714V30.7148H125.362V30.8426C125.234 32.3528 126.338 33.6771 127.848 33.8165C127.964 33.8281 128.08 33.8281 128.185 33.8281C129.23 33.9211 130.218 33.3286 130.613 32.3528L132.669 32.3412ZM125.373 29.193H130.636C130.717 27.799 129.648 26.6025 128.254 26.5328C128.185 26.5328 128.127 26.5328 128.057 26.5328C126.581 26.5212 125.385 27.7061 125.373 29.1814V29.193Z" fill="white"/>
<path d="M49.5502 10.1418C51.2347 10.0256 52.71 11.2919 52.8262 12.9763C52.8378 13.1738 52.8378 13.3829 52.8146 13.5804C52.8146 15.7992 51.618 17.0654 49.5502 17.0654H47.041V10.1418H49.5502ZM48.1214 16.0896H49.4341C50.6306 16.1593 51.6645 15.2416 51.7342 14.045C51.7458 13.894 51.7342 13.743 51.711 13.592C51.8736 12.3955 51.0372 11.2919 49.8407 11.1292C49.7013 11.106 49.5619 11.106 49.4225 11.1176H48.1214V16.0896Z" fill="white"/>
<path d="M54.0227 14.4513C53.8949 13.0921 54.894 11.884 56.2532 11.7446C57.6123 11.6168 58.8205 12.6159 58.9599 13.975C58.9715 14.1377 58.9715 14.2887 58.9599 14.4513C59.0877 15.8105 58.1002 17.0302 56.7294 17.158C55.3703 17.2858 54.1505 16.2984 54.0227 14.9276C54.0111 14.7766 54.0111 14.6139 54.0227 14.4513ZM57.8911 14.4513C57.8911 13.3129 57.38 12.6507 56.4855 12.6507C55.591 12.6507 55.0799 13.3129 55.0799 14.4513C55.0799 15.5898 55.5794 16.2519 56.4855 16.2519C57.3916 16.2519 57.8911 15.5898 57.8911 14.4513Z" fill="white"/>
<path d="M65.5115 17.0767H64.4428L63.3624 13.2199H63.2811L62.2007 17.0767H61.1436L59.7031 11.8491H60.7486L61.6896 15.8453H61.7709L62.8513 11.8491H63.8387L64.9191 15.8453H65.0004L65.9297 11.8491H66.9636L65.5115 17.0767Z" fill="white"/>
<path d="M68.1602 11.8375H69.1592V12.6739H69.2405C69.5077 12.0582 70.135 11.6865 70.7972 11.7446C71.7381 11.6749 72.5513 12.3719 72.621 13.3129C72.6326 13.4406 72.621 13.5684 72.6094 13.6846V17.0651H71.5755V13.9402C71.5755 13.1038 71.2154 12.6856 70.4487 12.6856C69.7865 12.6507 69.2289 13.1618 69.1941 13.824C69.1941 13.8821 69.1941 13.9518 69.1941 14.0099V17.0651H68.1602V11.8375Z" fill="white"/>
<path d="M74.248 9.80463H75.2819V17.0767H74.248V9.80463Z" fill="white"/>
<path d="M76.7215 14.4513C76.5937 13.0921 77.5928 11.884 78.9519 11.7446C80.3111 11.6168 81.5193 12.6159 81.6587 13.975C81.6703 14.1377 81.6703 14.2887 81.6587 14.4513C81.7864 15.8105 80.799 17.0302 79.4282 17.158C78.0575 17.2858 76.8493 16.2984 76.7215 14.9276C76.6983 14.7766 76.6983 14.6139 76.7215 14.4513ZM80.5899 14.4513C80.5899 13.3129 80.0788 12.6507 79.1843 12.6507C78.2898 12.6507 77.7787 13.3129 77.7787 14.4513C77.7787 15.5898 78.2782 16.2519 79.1843 16.2519C80.0788 16.2519 80.5899 15.5898 80.5899 14.4513Z" fill="white"/>
<path d="M82.7393 15.5897C82.7393 14.6487 83.4363 14.1027 84.6793 14.033L86.0965 13.9517V13.4986C86.0965 12.941 85.7364 12.639 85.0278 12.639C84.4469 12.639 84.052 12.8481 83.9358 13.2198H82.9367C83.0413 12.3253 83.8893 11.7445 85.0742 11.7445C86.3869 11.7445 87.1304 12.395 87.1304 13.4986V17.0766H86.1314V16.3448H86.05C85.7132 16.8791 85.1091 17.1928 84.4818 17.1696C83.6105 17.2625 82.8322 16.6236 82.7509 15.7639C82.7393 15.6942 82.7393 15.6478 82.7393 15.5897ZM86.1081 15.1482V14.7068L84.8303 14.7881C84.11 14.8346 83.7848 15.0785 83.7848 15.5432C83.7848 16.0195 84.1914 16.2867 84.749 16.2867C85.4227 16.3564 86.0268 15.8569 86.0965 15.1831C86.0965 15.1715 86.0965 15.1598 86.1081 15.1482Z" fill="white"/>
<path d="M88.4893 14.4513C88.4893 12.8018 89.3373 11.7562 90.6616 11.7562C91.3238 11.7214 91.9511 12.0815 92.2647 12.674H92.346V9.80463H93.3799V17.0767H92.3809V16.2519H92.2996C91.9627 16.8328 91.3354 17.1929 90.6616 17.1697C89.3257 17.1581 88.4893 16.1125 88.4893 14.4513ZM89.558 14.4513C89.558 15.5666 90.0808 16.2287 90.952 16.2287C91.8233 16.2287 92.3576 15.5549 92.3576 14.4513C92.3576 13.3594 91.8117 12.674 90.952 12.674C90.0808 12.6856 89.558 13.3594 89.558 14.4513Z" fill="white"/>
<path d="M97.6438 14.4514C97.516 13.0922 98.5151 11.8841 99.8742 11.7447C101.233 11.6053 102.442 12.6159 102.581 13.9751C102.593 14.1377 102.593 14.2887 102.581 14.4514C102.709 15.8105 101.721 17.0303 100.351 17.1581C98.9914 17.2859 97.7716 16.2985 97.6438 14.9277C97.6322 14.7767 97.6322 14.614 97.6438 14.4514ZM101.512 14.4514C101.512 13.3129 101.001 12.6508 100.107 12.6508C99.2121 12.6508 98.7009 13.3129 98.7009 14.4514C98.7009 15.5898 99.2005 16.252 100.107 16.252C101.001 16.252 101.512 15.5898 101.512 14.4514Z" fill="white"/>
<path d="M103.964 11.8375H104.963V12.6739H105.044C105.311 12.0582 105.939 11.6865 106.601 11.7446C107.542 11.6749 108.355 12.3719 108.425 13.3129C108.436 13.4406 108.425 13.5684 108.413 13.6846V17.0651H107.379V13.9402C107.379 13.1038 107.019 12.6856 106.252 12.6856C105.59 12.6507 105.033 13.1618 104.998 13.824C104.998 13.8821 104.998 13.9518 104.998 14.0099V17.0651H103.964V11.8375Z" fill="white"/>
<path d="M114.245 10.5364V11.8608H115.383V12.732H114.245V15.4271C114.245 15.9731 114.465 16.2171 114.988 16.2171C115.116 16.2171 115.255 16.2054 115.383 16.1938V17.0535C115.197 17.0883 115.011 17.0999 114.825 17.1115C113.675 17.1115 113.222 16.705 113.222 15.6943V12.7436H112.397V11.8724H113.222V10.5364H114.245Z" fill="white"/>
<path d="M116.777 9.80463H117.8V12.6856H117.881C118.16 12.0699 118.799 11.6982 119.472 11.7446C120.425 11.6982 121.238 12.4184 121.285 13.371C121.296 13.4755 121.285 13.5917 121.273 13.6963V17.0767H120.239V13.9518C120.239 13.1154 119.856 12.6972 119.124 12.6972C118.45 12.6391 117.858 13.1386 117.811 13.8124C117.811 13.8821 117.811 13.9518 117.811 14.0215V17.0767H116.777V9.80463Z" fill="white"/>
<path d="M127.301 15.6594C127.011 16.6468 126.058 17.2857 125.036 17.1696C123.724 17.2044 122.632 16.1705 122.597 14.8578C122.597 14.73 122.597 14.6022 122.62 14.4745C122.446 13.1501 123.375 11.942 124.688 11.7677C124.804 11.7561 124.92 11.7445 125.025 11.7445C126.477 11.7445 127.36 12.7436 127.36 14.3815V14.7416H123.665V14.7997C123.596 15.5664 124.165 16.2286 124.932 16.2983C124.978 16.2983 125.025 16.2983 125.059 16.2983C125.559 16.3564 126.058 16.1124 126.302 15.6594H127.301ZM123.677 13.9749H126.314C126.361 13.2779 125.849 12.6739 125.152 12.6274C125.106 12.6274 125.071 12.6274 125.025 12.6274C124.281 12.6158 123.677 13.2082 123.665 13.9517C123.677 13.9517 123.677 13.9633 123.677 13.9749Z" fill="white"/>
</g>
<defs>
<clipPath id="clip0">
<rect width="158" height="46.6995" fill="white"/>
</clipPath>
</defs>
</svg>
