<svg width="240" height="193" viewBox="0 0 240 193" fill="none" xmlns="http://www.w3.org/2000/svg">
<g filter="url(#filter0_i)">
<path fill-rule="evenodd" clip-rule="evenodd" d="M171.378 115.985C169.791 115.985 168.504 114.699 168.503 113.112L168.48 21.1405C168.48 19.5531 169.766 18.2655 171.354 18.2646C172.941 18.2637 174.228 19.5498 174.229 21.1372L174.252 113.109C174.252 114.696 172.966 115.984 171.378 115.985Z" fill="url(#paint0_linear)"/>
</g>
<path d="M236.746 53.0936C216.365 21.9094 194.558 47.3267 171.6 23.1173C171.817 31.2027 171.916 49.1555 172.035 62.4741C199.278 74.557 211.781 43.6983 236.746 53.0936Z" fill="url(#paint1_linear)"/>
<path d="M236.746 53.0936C216.365 21.9094 194.558 47.3267 171.6 23.1173C171.817 31.2027 171.916 49.1555 172.035 62.4741C199.278 74.557 211.781 43.6983 236.746 53.0936Z" fill="url(#paint2_linear)"/>
<path d="M236.746 53.0936C216.365 21.9094 194.558 47.3267 171.6 23.1173C171.817 31.2027 171.916 49.1555 172.035 62.4741C199.278 74.557 211.781 43.6983 236.746 53.0936Z" fill="url(#paint3_radial)"/>
<g opacity="0.3">
<path d="M171.818 30.2443L171.818 23.7342L171.925 23.457C173.877 25.4763 175.82 27.1402 177.755 28.5142L177.755 35.4847C175.785 34.0639 173.806 32.34 171.818 30.2443Z" fill="black"/>
<path d="M171.818 30.2443L171.818 23.7342L171.925 23.457C173.877 25.4763 175.82 27.1402 177.755 28.5142L177.755 35.4847C175.785 34.0639 173.806 32.34 171.818 30.2443Z" fill="url(#paint4_radial)"/>
<path fill-rule="evenodd" clip-rule="evenodd" d="M184.43 39.2533C182.216 38.3204 179.991 37.0978 177.755 35.4847L177.755 43.163C175.787 41.7439 173.811 40.0226 171.826 37.9305C171.851 40.4265 171.875 43.0388 171.897 45.6836C173.858 47.742 175.811 49.4391 177.755 50.8412L177.755 58.5194C175.831 57.1324 173.9 55.4565 171.96 53.4278C171.985 56.5607 172.01 59.6235 172.035 62.4741C174.016 63.3527 175.919 64.0042 177.755 64.4607L177.755 58.5194C179.991 60.1325 182.216 61.3551 184.43 62.288L184.43 65.3215C186.879 65.3411 189.213 65.0328 191.464 64.4954L191.464 64.4051C191.533 64.4187 191.602 64.4321 191.671 64.4453C194.197 63.8255 196.619 62.9201 198.983 61.8696L198.983 57.6423C200.386 57.7358 201.783 57.8014 203.175 57.8668L203.176 57.8669C204.339 57.9215 205.499 57.976 206.656 58.0465L206.656 58.0543C206.66 58.052 206.665 58.0496 206.669 58.0473C206.665 58.047 206.66 58.0467 206.656 58.0465L206.656 50.3682C209.18 50.522 211.686 50.7516 214.175 51.2247L214.175 54.3551C215.789 53.6546 217.425 53.0319 219.096 52.5334C217.463 51.958 215.823 51.5379 214.175 51.2247L214.175 43.5464C216.596 44.0067 219 44.6973 221.387 45.7726L221.387 51.9375C223.535 51.4638 225.75 51.2202 228.062 51.2993L228.062 49.9449L228.086 49.9641C228.636 50.4172 229.186 50.8993 229.735 51.4123C231.969 51.6379 234.298 52.1721 236.746 53.0936C233.88 48.7075 230.985 45.4412 228.062 42.999L228.062 49.9449C225.853 48.1301 223.628 46.7819 221.387 45.7726L221.387 38.7451C219.001 37.6458 216.596 36.9361 214.175 36.4616L214.175 43.5464C211.686 43.0734 209.18 42.8437 206.656 42.69L206.656 35.5765C205.427 35.4994 204.194 35.4415 202.957 35.3834C201.637 35.3214 200.312 35.2591 198.983 35.1732L198.983 42.2858C196.493 42.1199 193.986 41.8662 191.464 41.3704L191.464 34.2858C189.133 33.8402 186.788 33.1914 184.43 32.2175L184.43 39.2533ZM184.43 46.9315L184.43 39.2533C186.788 40.2471 189.133 40.9122 191.464 41.3704L191.464 49.0486C189.133 48.5904 186.788 47.9253 184.43 46.9315ZM184.43 54.6097C182.216 53.6768 179.991 52.4543 177.755 50.8412L177.755 43.163C179.991 44.776 182.216 45.9986 184.43 46.9315L184.43 54.6097ZM191.464 56.7269C193.986 57.2227 196.493 57.4763 198.983 57.6423L198.983 49.9641C200.386 50.0575 201.783 50.1232 203.175 50.1886L203.176 50.1886C204.339 50.2433 205.499 50.2978 206.656 50.3682L206.656 42.69C205.499 42.6196 204.339 42.5651 203.176 42.5104C201.783 42.445 200.386 42.3793 198.983 42.2858L198.983 49.9641C196.493 49.7981 193.986 49.5444 191.464 49.0486L191.464 56.7269ZM191.464 56.7269C189.133 56.2686 186.788 55.6036 184.43 54.6097L184.43 62.288C186.788 63.2818 189.133 63.9469 191.464 64.4051L191.464 56.7269Z" fill="black"/>
<path fill-rule="evenodd" clip-rule="evenodd" d="M184.43 39.2533C182.216 38.3204 179.991 37.0978 177.755 35.4847L177.755 43.163C175.787 41.7439 173.811 40.0226 171.826 37.9305C171.851 40.4265 171.875 43.0388 171.897 45.6836C173.858 47.742 175.811 49.4391 177.755 50.8412L177.755 58.5194C175.831 57.1324 173.9 55.4565 171.96 53.4278C171.985 56.5607 172.01 59.6235 172.035 62.4741C174.016 63.3527 175.919 64.0042 177.755 64.4607L177.755 58.5194C179.991 60.1325 182.216 61.3551 184.43 62.288L184.43 65.3215C186.879 65.3411 189.213 65.0328 191.464 64.4954L191.464 64.4051C191.533 64.4187 191.602 64.4321 191.671 64.4453C194.197 63.8255 196.619 62.9201 198.983 61.8696L198.983 57.6423C200.386 57.7358 201.783 57.8014 203.175 57.8668L203.176 57.8669C204.339 57.9215 205.499 57.976 206.656 58.0465L206.656 58.0543C206.66 58.052 206.665 58.0496 206.669 58.0473C206.665 58.047 206.66 58.0467 206.656 58.0465L206.656 50.3682C209.18 50.522 211.686 50.7516 214.175 51.2247L214.175 54.3551C215.789 53.6546 217.425 53.0319 219.096 52.5334C217.463 51.958 215.823 51.5379 214.175 51.2247L214.175 43.5464C216.596 44.0067 219 44.6973 221.387 45.7726L221.387 51.9375C223.535 51.4638 225.75 51.2202 228.062 51.2993L228.062 49.9449L228.086 49.9641C228.636 50.4172 229.186 50.8993 229.735 51.4123C231.969 51.6379 234.298 52.1721 236.746 53.0936C233.88 48.7075 230.985 45.4412 228.062 42.999L228.062 49.9449C225.853 48.1301 223.628 46.7819 221.387 45.7726L221.387 38.7451C219.001 37.6458 216.596 36.9361 214.175 36.4616L214.175 43.5464C211.686 43.0734 209.18 42.8437 206.656 42.69L206.656 35.5765C205.427 35.4994 204.194 35.4415 202.957 35.3834C201.637 35.3214 200.312 35.2591 198.983 35.1732L198.983 42.2858C196.493 42.1199 193.986 41.8662 191.464 41.3704L191.464 34.2858C189.133 33.8402 186.788 33.1914 184.43 32.2175L184.43 39.2533ZM184.43 46.9315L184.43 39.2533C186.788 40.2471 189.133 40.9122 191.464 41.3704L191.464 49.0486C189.133 48.5904 186.788 47.9253 184.43 46.9315ZM184.43 54.6097C182.216 53.6768 179.991 52.4543 177.755 50.8412L177.755 43.163C179.991 44.776 182.216 45.9986 184.43 46.9315L184.43 54.6097ZM191.464 56.7269C193.986 57.2227 196.493 57.4763 198.983 57.6423L198.983 49.9641C200.386 50.0575 201.783 50.1232 203.175 50.1886L203.176 50.1886C204.339 50.2433 205.499 50.2978 206.656 50.3682L206.656 42.69C205.499 42.6196 204.339 42.5651 203.176 42.5104C201.783 42.445 200.386 42.3793 198.983 42.2858L198.983 49.9641C196.493 49.7981 193.986 49.5444 191.464 49.0486L191.464 56.7269ZM191.464 56.7269C189.133 56.2686 186.788 55.6036 184.43 54.6097L184.43 62.288C186.788 63.2818 189.133 63.9469 191.464 64.4051L191.464 56.7269Z" fill="url(#paint5_radial)"/>
</g>
<path fill-rule="evenodd" clip-rule="evenodd" d="M202.957 35.3834C214.598 35.9303 225.875 36.4601 236.746 53.0936C236.473 52.9906 236.2 52.8924 235.929 52.7989C225.316 37.3852 214.319 36.8686 202.977 36.3357C192.795 35.8574 182.335 35.366 171.624 24.0744C171.616 23.7418 171.608 23.4225 171.6 23.1173C182.312 34.4135 192.774 34.905 202.957 35.3834ZM171.662 25.8599C171.794 32.5693 171.878 43.1105 171.957 53.0155C171.983 56.2919 172.009 59.4986 172.035 62.4741C172.039 62.4758 172.043 62.4774 172.046 62.4791C172.023 59.7749 172 56.8993 171.976 53.9679C171.893 43.5805 171.805 32.4936 171.662 25.8599Z" fill="url(#paint6_linear)"/>
<path d="M171.601 23.1235C171.818 31.209 171.917 49.1618 172.036 62.4803" stroke="#4EA545" stroke-width="0.359281" stroke-linecap="round"/>
<ellipse cx="171.063" cy="18.7216" rx="5.38551" ry="5.37947" transform="rotate(-8.24812 171.063 18.7216)" fill="#C4C4C4"/>
<ellipse cx="171.063" cy="18.7216" rx="5.38551" ry="5.37947" transform="rotate(-8.24812 171.063 18.7216)" fill="url(#paint7_radial)"/>
<path d="M55.7743 65.8904C50.8755 58.4251 53.7973 50.1636 62.3003 47.4379L120.295 28.8475C125.019 27.3333 131.055 29.4679 133.776 33.6153L203.425 139.756C207.78 146.392 205.182 153.735 197.624 156.158L140.656 174.419C134.42 176.418 126.453 173.601 122.861 168.126L55.7743 65.8904Z" fill="url(#paint8_linear)"/>
<path d="M55.7743 65.8904C50.8755 58.4251 53.7973 50.1636 62.3003 47.4379L120.295 28.8475C125.019 27.3333 131.055 29.4679 133.776 33.6153L203.425 139.756C207.78 146.392 205.182 153.735 197.624 156.158L140.656 174.419C134.42 176.418 126.453 173.601 122.861 168.126L55.7743 65.8904Z" fill="url(#paint9_linear)"/>
<path d="M55.7743 65.8904C50.8755 58.4251 53.7973 50.1636 62.3003 47.4379L120.295 28.8475C125.019 27.3333 131.055 29.4679 133.776 33.6153L203.425 139.756C207.78 146.392 205.182 153.735 197.624 156.158L140.656 174.419C134.42 176.418 126.453 173.601 122.861 168.126L55.7743 65.8904Z" fill="url(#paint10_linear)"/>
<path d="M59.4083 61.5021C56.0336 56.3593 58.0464 50.668 63.904 48.7904L121.476 30.3353C125.444 29.0633 130.514 30.8564 132.8 34.3403L200.729 137.859C203.777 142.504 201.959 147.645 196.669 149.341L140.465 167.357C135.174 169.053 128.414 166.662 125.366 162.017L59.4083 61.5021Z" fill="url(#paint11_linear)"/>
<path d="M59.4083 61.5021C56.0336 56.3593 58.0464 50.668 63.904 48.7904L121.476 30.3353C125.444 29.0633 130.514 30.8564 132.8 34.3403L200.729 137.859C203.777 142.504 201.959 147.645 196.669 149.341L140.465 167.357C135.174 169.053 128.414 166.662 125.366 162.017L59.4083 61.5021Z" fill="url(#paint12_linear)"/>
<path d="M89.3324 43.736C89.0296 43.2746 89.2102 42.7639 89.7358 42.5955L101.821 38.7215C102.314 38.5636 102.943 38.7862 103.227 39.2188C103.511 39.6514 103.342 40.1301 102.849 40.2881L90.6448 44.2002C90.185 44.3476 89.5974 44.1398 89.3324 43.736Z" fill="#A04752"/>
<path d="M86.6264 44.6011C86.3236 44.1397 86.5042 43.6291 87.0298 43.4606L87.108 43.4355C87.6007 43.2776 88.2302 43.5002 88.5141 43.9328C88.798 44.3654 88.6287 44.8441 88.1359 45.0021L87.9388 45.0653C87.4789 45.2127 86.8913 45.0049 86.6264 44.6011Z" fill="#A04752"/>
<path fill-rule="evenodd" clip-rule="evenodd" d="M65.2834 49.9469C61.1264 51.2794 59.698 55.3184 62.0929 58.9681L128.172 159.669C130.458 163.153 135.528 164.946 139.496 163.674L195.41 145.75C199.378 144.478 200.742 140.623 198.455 137.139L131.39 34.9367C129.54 32.1164 125.436 30.6649 122.223 31.6946L109.742 35.6954C109.064 35.913 108.779 36.7174 109.17 37.3132L109.387 37.6436C110.149 38.8049 109.695 40.09 108.372 40.514L84.5944 48.1359C83.2717 48.5599 81.5817 47.9622 80.8197 46.8009L80.2749 45.9707C80.0092 45.5658 79.506 45.3878 79.0447 45.5357L65.2834 49.9469Z" fill="#F5F5F5"/>
<path d="M61.399 66.7667C60.9251 66.0446 60.0786 65.9849 59.5081 66.6334C58.9377 67.2819 58.8594 68.393 59.3332 69.1151L63.3626 75.2554C63.8365 75.9775 64.683 76.0371 65.2535 75.3887C65.8239 74.7402 65.9022 73.6291 65.4284 72.907L61.399 66.7667Z" fill="#A04752"/>
<path d="M60.3301 67.6795C60.1143 67.3507 59.7289 67.3236 59.4692 67.6188C59.2095 67.9141 59.1738 68.42 59.3895 68.7487L63.5525 75.0926C63.7682 75.4214 64.1537 75.4485 64.4134 75.1533C64.6731 74.858 64.7088 74.3521 64.493 74.0234L60.3301 67.6795Z" fill="#FF9B7D"/>
<path d="M71.2798 81.8162C70.806 81.0942 69.9594 81.0345 69.389 81.683C68.8185 82.3315 68.7402 83.4425 69.2141 84.1646L75.601 93.8976C76.0749 94.6197 76.9214 94.6794 77.4919 94.0309C78.0623 93.3824 78.1406 92.2713 77.6668 91.5492L71.2798 81.8162Z" fill="#A04752"/>
<path d="M70.9439 81.8162C70.4701 81.0942 69.6235 81.0345 69.0531 81.683C68.4826 82.3315 68.4043 83.4425 68.8781 84.1646L75.2651 93.8976C75.7389 94.6197 76.5855 94.6794 77.1559 94.0309C77.7264 93.3824 77.8047 92.2713 77.3308 91.5492L70.9439 81.8162Z" fill="#FFA88B"/>
<path d="M79.5474 94.4157C79.0736 93.6936 78.227 93.634 77.6566 94.2825C77.0861 94.931 77.0078 96.042 77.4817 96.7641L83.8686 106.497C84.3424 107.219 85.189 107.279 85.7595 106.63C86.3299 105.982 86.4082 104.871 85.9344 104.149L79.5474 94.4157Z" fill="#A04752"/>
<path d="M79.2115 94.4157C78.7376 93.6936 77.8911 93.634 77.3206 94.2825C76.7502 94.931 76.6719 96.042 77.1457 96.7641L83.5327 106.497C84.0065 107.219 84.8531 107.279 85.4235 106.63C85.994 105.982 86.0723 104.871 85.5984 104.149L79.2115 94.4157Z" fill="#FFA88B"/>
<path d="M175.96 160.496C175.98 161 175.606 161.534 175.125 161.687L167.117 164.243C166.636 164.397 166.23 164.112 166.21 163.607C166.19 163.103 166.563 162.569 167.045 162.416L175.052 159.86C175.534 159.706 175.94 159.991 175.96 160.496Z" fill="#A04752"/>
<path fill-rule="evenodd" clip-rule="evenodd" d="M152.349 168.292C152.349 167.717 151.789 167.308 151.241 167.483C150.889 167.595 150.65 167.922 150.65 168.292V168.359C150.65 168.934 151.21 169.343 151.758 169.168C152.11 169.056 152.349 168.729 152.349 168.359V168.292ZM148.139 169.094C148.139 168.724 148.378 168.396 148.73 168.284C149.278 168.109 149.838 168.518 149.838 169.094V169.16C149.838 169.53 149.599 169.857 149.247 169.97C148.699 170.145 148.139 169.736 148.139 169.16V169.094ZM147.327 169.921C147.327 169.333 146.755 168.915 146.194 169.093C145.822 169.212 145.575 169.565 145.591 169.955L145.592 169.983C145.614 170.556 146.177 170.95 146.723 170.775C147.083 170.661 147.327 170.326 147.327 169.949V169.921ZM153.161 167.558C153.161 168.133 153.721 168.542 154.269 168.367C154.621 168.255 154.86 167.927 154.86 167.558V167.491C154.86 166.915 154.301 166.506 153.752 166.681C153.4 166.794 153.161 167.121 153.161 167.491V167.558ZM157.371 166.756C157.371 167.126 157.132 167.453 156.78 167.566C156.232 167.74 155.672 167.331 155.672 166.756V166.689C155.672 166.319 155.911 165.992 156.263 165.88C156.812 165.705 157.371 166.114 157.371 166.689V166.756ZM158.183 165.955C158.183 166.53 158.743 166.939 159.291 166.764C159.644 166.652 159.883 166.324 159.883 165.955V165.888C159.883 165.312 159.323 164.903 158.775 165.078C158.422 165.191 158.183 165.518 158.183 165.888V165.955ZM162.474 165.069C162.49 165.465 162.233 165.825 161.855 165.946C161.286 166.127 160.694 165.707 160.694 165.11C160.694 164.726 160.942 164.386 161.308 164.27L161.325 164.264C161.88 164.087 162.451 164.487 162.474 165.069Z" fill="#A04752"/>
<path fill-rule="evenodd" clip-rule="evenodd" d="M186.245 157.435C186.245 156.86 185.685 156.451 185.137 156.626C184.784 156.738 184.545 157.066 184.545 157.435V157.502C184.545 158.077 185.105 158.487 185.653 158.312C186.006 158.199 186.245 157.872 186.245 157.502V157.435ZM182.034 158.237C182.034 157.867 182.273 157.54 182.625 157.427C183.174 157.252 183.733 157.661 183.733 158.237V158.304C183.733 158.673 183.494 159.001 183.142 159.113C182.594 159.288 182.034 158.879 182.034 158.304V158.237ZM181.222 159.064C181.222 158.476 180.65 158.058 180.09 158.236C179.718 158.355 179.471 158.708 179.486 159.098L179.487 159.126C179.51 159.699 180.072 160.093 180.618 159.919C180.978 159.804 181.222 159.469 181.222 159.092V159.064ZM187.057 156.701C187.057 157.276 187.616 157.685 188.165 157.51C188.517 157.398 188.756 157.07 188.756 156.701V156.634C188.756 156.058 188.196 155.649 187.648 155.824C187.296 155.937 187.057 156.264 187.057 156.634V156.701ZM191.267 155.899C191.267 156.269 191.028 156.596 190.676 156.709C190.128 156.884 189.568 156.475 189.568 155.899V155.832C189.568 155.463 189.807 155.135 190.159 155.023C190.707 154.848 191.267 155.257 191.267 155.832V155.899ZM192.079 155.098C192.079 155.673 192.639 156.082 193.187 155.907C193.539 155.795 193.778 155.468 193.778 155.098V155.031C193.778 154.455 193.218 154.046 192.67 154.221C192.318 154.334 192.079 154.661 192.079 155.031V155.098ZM196.37 154.212C196.385 154.608 196.128 154.968 195.751 155.089C195.182 155.27 194.59 154.85 194.59 154.253C194.59 153.869 194.838 153.53 195.203 153.413L195.221 153.407C195.776 153.23 196.347 153.63 196.37 154.212Z" fill="#A04752"/>
<g clip-path="url(#clip0)">
<path opacity="0.3" d="M117.564 102.878C109.848 105.371 108.898 98.0704 97.7785 101.664L91.502 103.692L132.88 166.599L203 143.94L178.083 106.06C168.212 109.25 166.521 100.751 157.217 103.758C149.019 106.407 144.08 102.162 136.818 104.508C129.556 106.855 125.28 100.385 117.564 102.878Z" fill="url(#paint13_linear)"/>
<line opacity="0.1" y1="-0.179641" x2="72.3013" y2="-0.179641" transform="matrix(0.54954 0.835467 -0.951554 0.307482 106.891 101.234)" stroke="black" stroke-width="0.359281" stroke-dasharray="1.8 1.8"/>
<line opacity="0.1" y1="-0.179641" x2="64.6863" y2="-0.179641" transform="matrix(0.54954 0.835467 -0.951554 0.307482 125.099 103.065)" stroke="black" stroke-width="0.359281" stroke-dasharray="1.8 1.8"/>
<line opacity="0.1" y1="-0.179641" x2="58.4892" y2="-0.179641" transform="matrix(0.54954 0.835467 -0.951554 0.307482 142.528 103.711)" stroke="black" stroke-width="0.359281" stroke-dasharray="1.8 1.8"/>
<line opacity="0.1" y1="-0.179641" x2="53.6051" y2="-0.179641" transform="matrix(0.54954 0.835467 -0.951554 0.307482 159.236 103.26)" stroke="black" stroke-width="0.359281" stroke-dasharray="1.8 1.8"/>
<path d="M174.025 99.8896C164.153 103.08 166.521 100.751 157.217 103.758C149.019 106.407 144.968 103.513 137.706 105.859C130.444 108.206 125.28 100.385 117.564 102.878C109.848 105.371 108.898 98.0704 97.7785 101.664L91.502 103.692" stroke="url(#paint14_linear)" stroke-width="1.07784"/>
<path d="M139.155 156.956C138.883 156.542 139.044 156.082 139.516 155.93L145.041 154.145C145.513 153.992 146.116 154.204 146.388 154.619C146.661 155.033 146.499 155.492 146.028 155.644L140.503 157.43C140.031 157.582 139.428 157.37 139.155 156.956Z" fill="url(#paint15_linear)"/>
<path d="M153.177 152.425C152.904 152.01 153.066 151.551 153.538 151.399L159.063 149.613C159.534 149.461 160.137 149.673 160.41 150.087C160.682 150.501 160.521 150.961 160.049 151.113L154.524 152.898C154.052 153.051 153.449 152.839 153.177 152.425Z" fill="url(#paint16_linear)"/>
<path d="M167.2 147.893C166.928 147.479 167.089 147.02 167.561 146.868L173.086 145.082C173.558 144.93 174.161 145.142 174.433 145.556C174.706 145.97 174.544 146.429 174.072 146.582L168.547 148.367C168.076 148.52 167.473 148.307 167.2 147.893Z" fill="url(#paint17_linear)"/>
<path d="M181.223 143.362C180.95 142.948 181.112 142.489 181.584 142.336L187.108 140.551C187.58 140.399 188.183 140.611 188.456 141.025C188.728 141.439 188.567 141.898 188.095 142.051L182.57 143.836C182.098 143.988 181.495 143.776 181.223 143.362Z" fill="url(#paint18_linear)"/>
<path fill-rule="evenodd" clip-rule="evenodd" d="M70.8711 62.7537C69.9278 63.0586 69.6047 63.9771 70.1495 64.8053C70.6943 65.6336 71.9007 66.0579 72.844 65.7531L96.3618 58.1536C97.3051 57.8488 97.6282 56.9302 97.0834 56.102C96.5386 55.2738 95.3322 54.8495 94.3889 55.1543L70.8711 62.7537ZM101.27 52.9307C100.327 53.2356 100.004 54.1541 100.548 54.9823C101.093 55.8106 102.3 56.2349 103.243 55.9301L108.818 54.1284C109.762 53.8235 110.085 52.905 109.54 52.0768C108.995 51.2485 107.789 50.8242 106.846 51.129L101.27 52.9307ZM74.0688 70.7638C73.524 69.9356 73.8471 69.017 74.7904 68.7122L80.5105 66.8639C81.4538 66.559 82.6602 66.9833 83.205 67.8116C83.7497 68.6398 83.4267 69.5584 82.4833 69.8632L76.7633 71.7116C75.8199 72.0164 74.6136 71.5921 74.0688 70.7638ZM87.7475 64.5253C86.8042 64.8301 86.4811 65.7486 87.0259 66.5769C87.5707 67.4051 88.7771 67.8294 89.7204 67.5246L107.025 61.9327C107.969 61.6279 108.292 60.7094 107.747 59.8811C107.202 59.0529 105.996 58.6286 105.053 58.9334L87.7475 64.5253ZM82.6659 82.2597C82.1943 82.4121 82.0327 82.8714 82.3051 83.2855C82.5775 83.6996 83.1807 83.9118 83.6523 83.7594L101.311 78.0532C101.783 77.9008 101.944 77.4415 101.672 77.0274C101.399 76.6133 100.796 76.4011 100.325 76.5536L82.6659 82.2597ZM103.716 75.4576C103.245 75.61 103.083 76.0692 103.356 76.4834C103.628 76.8975 104.231 77.1096 104.703 76.9572L108.64 75.6851C109.111 75.5327 109.273 75.0734 109 74.6593C108.728 74.2452 108.125 74.033 107.653 74.1854L103.716 75.4576ZM110.386 74.2115C110.114 73.7973 110.275 73.3381 110.747 73.1857L121.464 69.7228C121.935 69.5703 122.538 69.7825 122.811 70.1966C123.083 70.6107 122.922 71.07 122.45 71.2224L111.734 74.6853C111.262 74.8377 110.659 74.6256 110.386 74.2115ZM124.599 68.7095C124.128 68.8619 123.966 69.3212 124.239 69.7353C124.511 70.1494 125.114 70.3616 125.586 70.2091L127.775 69.5017C128.247 69.3493 128.408 68.89 128.136 68.4759C127.863 68.0618 127.26 67.8496 126.789 68.002L124.599 68.7095ZM84.4538 86.5522C84.1814 86.1381 84.3429 85.6788 84.8146 85.5264L95.5311 82.0635C96.0028 81.9111 96.606 82.1232 96.8784 82.5373C97.1508 82.9515 96.9892 83.4107 96.5175 83.5631L85.801 87.026C85.3294 87.1785 84.7262 86.9663 84.4538 86.5522ZM98.7579 81.0208C98.2862 81.1732 98.1247 81.6325 98.3971 82.0466C98.6694 82.4607 99.2726 82.6729 99.7443 82.5205L117.403 76.8143C117.875 76.6619 118.036 76.2026 117.764 75.7885C117.491 75.3744 116.888 75.1622 116.417 75.3146L98.7579 81.0208Z" fill="url(#paint19_linear)"/>
<path fill-rule="evenodd" clip-rule="evenodd" d="M133.249 44.0645C133.903 45.0592 133.515 46.1623 132.382 46.5283C131.249 46.8944 129.8 46.3848 129.146 45.3902C128.492 44.3955 128.88 43.2924 130.013 42.9263C131.145 42.5602 132.594 43.0698 133.249 44.0645ZM130.457 43.6017C130.598 43.5559 130.78 43.6196 130.861 43.744L131.503 44.7195L132.101 44.5262C132.243 44.4804 132.424 44.5441 132.506 44.6685C132.588 44.7928 132.539 44.9307 132.397 44.9764L131.543 45.2526C131.401 45.2984 131.22 45.2347 131.138 45.1103L130.349 43.9097C130.267 43.7853 130.315 43.6475 130.457 43.6017ZM118.318 48.3311C117.846 48.4835 117.685 48.9427 117.957 49.3569C118.23 49.771 118.833 49.9831 119.304 49.8307L127.704 47.1166C128.175 46.9642 128.337 46.505 128.064 46.0908C127.792 45.6767 127.189 45.4646 126.717 45.617L118.318 48.3311Z" fill="url(#paint20_linear)"/>
</g>
<g filter="url(#filter1_f)">
<ellipse rx="10.8271" ry="9.73136" transform="matrix(0.933615 -0.358278 0.542747 0.839896 139.591 106.085)" fill="url(#paint21_radial)"/>
</g>
<ellipse rx="9.02337" ry="8.11015" transform="matrix(0.933615 -0.358278 0.542747 0.839896 138.85 102.509)" fill="url(#paint22_linear)"/>
<ellipse rx="9.02337" ry="8.11015" transform="matrix(0.933615 -0.358278 0.542747 0.839896 138.85 101.791)" fill="url(#paint23_linear)"/>
<path d="M147.106 98.6224C149.474 102.286 147.731 106.695 143.154 108.452C138.577 110.208 132.961 108.623 130.593 104.959C128.225 101.296 129.968 96.8867 134.545 95.1302C139.123 93.3736 144.739 94.9585 147.106 98.6224Z" stroke="url(#paint24_radial)" stroke-opacity="0.5" stroke-width="0.359281" style="mix-blend-mode:soft-light"/>
<path fill-rule="evenodd" clip-rule="evenodd" d="M143.04 98.2958L140.139 105.539L134.378 103.931L135.121 102.076L138.513 103.022L140.67 97.6346L143.04 98.2958Z" fill="white"/>
<path d="M51.4539 121.604C62.6809 115.869 65.9621 118.093 74.3449 113.523C86.9749 114.025 88.4263 118.852 97.2358 121.604C95.3672 127.038 74.3451 134.103 74.3451 134.103C64.8482 129.015 63.8777 124.288 51.4539 121.604Z" fill="#F5F5F5"/>
<path d="M51.4539 121.604C62.6809 115.869 65.9621 118.093 74.3449 113.523C86.9749 114.025 88.4263 118.852 97.2358 121.604C95.3672 127.038 74.3451 134.103 74.3451 134.103C64.8482 129.015 63.8777 124.288 51.4539 121.604Z" fill="url(#paint25_linear)"/>
<path d="M51.4539 121.604C62.6809 115.869 65.9621 118.093 74.3449 113.523C86.9749 114.025 88.4263 118.852 97.2358 121.604C95.3672 127.038 74.3451 134.103 74.3451 134.103C64.8482 129.015 63.8777 124.288 51.4539 121.604Z" fill="url(#paint26_radial)" style="mix-blend-mode:soft-light"/>
<path d="M51.4539 121.604C62.6809 115.869 65.9621 118.093 74.3449 113.523C86.9749 114.025 88.4263 118.852 97.2358 121.604C95.3672 127.038 74.3451 134.103 74.3451 134.103C64.8482 129.015 63.8777 124.288 51.4539 121.604Z" fill="url(#paint27_linear)"/>
<g filter="url(#filter2_i)">
<path d="M74.3447 132.173C83.599 128.999 88.022 125.384 97.2357 121.624L97.2357 166.396L74.3448 173.735C74.3448 173.735 74.3447 144.094 74.3447 132.173Z" fill="url(#paint28_linear)"/>
</g>
<g filter="url(#filter3_i)">
<path d="M74.3444 132.169C66.5671 128.906 60.9521 119.582 51.4521 121.358C51.4522 127.759 51.4522 166.13 51.4522 166.13L74.3444 173.734C74.3444 173.734 74.3444 144.023 74.3444 132.169Z" fill="#ADADAD"/>
<path d="M74.3444 132.169C66.5671 128.906 60.9521 119.582 51.4521 121.358C51.4522 127.759 51.4522 166.13 51.4522 166.13L74.3444 173.734C74.3444 173.734 74.3444 144.023 74.3444 132.169Z" fill="url(#paint29_linear)"/>
</g>
<rect width="24.0392" height="24.0392" transform="matrix(0.952235 -0.305367 0.952235 0.305367 20.7646 98.7611)" fill="url(#paint30_linear)"/>
<path d="M43.6553 106.103L66.5462 98.7659L66.5462 176.233L43.6553 183.571L43.6553 106.103Z" fill="#FCC403"/>
<path d="M43.6553 106.103L66.5462 98.7659L66.5462 176.233L43.6553 183.571L43.6553 106.103Z" fill="url(#paint31_linear)"/>
<path d="M43.655 106.102L20.7627 98.7633L20.7627 176.231L43.6551 183.57L43.655 106.102Z" fill="#F2AF32"/>
<path d="M43.655 106.102L20.7627 98.7633L20.7627 176.231L43.6551 183.57L43.655 106.102Z" fill="url(#paint32_linear)"/>
<path fill-rule="evenodd" clip-rule="evenodd" d="M55.7268 75.3602L44.9612 94.9262L45.3829 97.2431L43.4114 97.2431L34.6406 91.286L37.1893 87.4758L39.1621 87.4758L42.5159 91.0317L53.178 73.6591L55.1515 73.6591L55.7268 75.3602Z" fill="#27994E"/>
<path fill-rule="evenodd" clip-rule="evenodd" d="M36.6121 91.286L34.6406 91.286L37.1893 87.4759L39.1621 87.4759L36.6121 91.286Z" fill="url(#paint33_linear)"/>
<path fill-rule="evenodd" clip-rule="evenodd" d="M58.5921 76.0597L45.3813 97.2425L36.6123 91.286L39.161 87.4759L44.4889 91.0319L55.151 73.6593L58.5921 76.0597Z" fill="#B4CA1D"/>
<path fill-rule="evenodd" clip-rule="evenodd" d="M58.5921 76.0597L45.3813 97.2425L36.6123 91.286L39.161 87.4759L44.4889 91.0319L55.151 73.6593L58.5921 76.0597Z" fill="url(#paint34_linear)"/>
<path fill-rule="evenodd" clip-rule="evenodd" d="M44.3353 90.9378L54.9397 73.6592H55.1505L55.3036 73.7531L44.6415 91.1258L44.3353 90.9378ZM39.1605 87.4758L39.3098 87.5756L36.8603 91.2375L45.4817 97.0937L45.3807 97.2423H45.061L36.3633 91.3343L38.9444 87.4758H39.1605Z" fill="#88EE9E"/>
<defs>
<filter id="filter0_i" x="168.48" y="18.2645" width="5.77155" height="97.72" filterUnits="userSpaceOnUse" color-interpolation-filters="sRGB">
<feFlood flood-opacity="0" result="BackgroundImageFix"/>
<feBlend mode="normal" in="SourceGraphic" in2="BackgroundImageFix" result="shape"/>
<feColorMatrix in="SourceAlpha" type="matrix" values="0 0 0 0 0 0 0 0 0 0 0 0 0 0 0 0 0 0 127 0" result="hardAlpha"/>
<feOffset dy="-0.359281"/>
<feComposite in2="hardAlpha" operator="arithmetic" k2="-1" k3="1"/>
<feColorMatrix type="matrix" values="0 0 0 0 1 0 0 0 0 1 0 0 0 0 1 0 0 0 0.45 0"/>
<feBlend mode="normal" in2="shape" result="effect1_innerShadow"/>
</filter>
<filter id="filter1_f" x="125.309" y="94.1615" width="28.5633" height="23.8471" filterUnits="userSpaceOnUse" color-interpolation-filters="sRGB">
<feFlood flood-opacity="0" result="BackgroundImageFix"/>
<feBlend mode="normal" in="SourceGraphic" in2="BackgroundImageFix" result="shape"/>
<feGaussianBlur stdDeviation="1.43713" result="effect1_foregroundBlur"/>
</filter>
<filter id="filter2_i" x="74.3447" y="121.624" width="22.891" height="52.111" filterUnits="userSpaceOnUse" color-interpolation-filters="sRGB">
<feFlood flood-opacity="0" result="BackgroundImageFix"/>
<feBlend mode="normal" in="SourceGraphic" in2="BackgroundImageFix" result="shape"/>
<feColorMatrix in="SourceAlpha" type="matrix" values="0 0 0 0 0 0 0 0 0 0 0 0 0 0 0 0 0 0 127 0" result="hardAlpha"/>
<feOffset/>
<feGaussianBlur stdDeviation="3.41317"/>
<feComposite in2="hardAlpha" operator="arithmetic" k2="-1" k3="1"/>
<feColorMatrix type="matrix" values="0 0 0 0 0.729167 0 0 0 0 0.95125 0 0 0 0 1 0 0 0 0.35 0"/>
<feBlend mode="normal" in2="shape" result="effect1_innerShadow"/>
</filter>
<filter id="filter3_i" x="51.4521" y="121.135" width="22.8923" height="52.599" filterUnits="userSpaceOnUse" color-interpolation-filters="sRGB">
<feFlood flood-opacity="0" result="BackgroundImageFix"/>
<feBlend mode="normal" in="SourceGraphic" in2="BackgroundImageFix" result="shape"/>
<feColorMatrix in="SourceAlpha" type="matrix" values="0 0 0 0 0 0 0 0 0 0 0 0 0 0 0 0 0 0 127 0" result="hardAlpha"/>
<feOffset/>
<feGaussianBlur stdDeviation="3.41317"/>
<feComposite in2="hardAlpha" operator="arithmetic" k2="-1" k3="1"/>
<feColorMatrix type="matrix" values="0 0 0 0 0.729167 0 0 0 0 0.95125 0 0 0 0 1 0 0 0 0.35 0"/>
<feBlend mode="normal" in2="shape" result="effect1_innerShadow"/>
</filter>
<linearGradient id="paint0_linear" x1="168.492" y1="67.1262" x2="174.24" y2="67.1248" gradientUnits="userSpaceOnUse">
<stop stop-color="#B9CCE8"/>
<stop offset="0.0929178" stop-color="#95A2B6"/>
<stop offset="0.241583" stop-color="#CFE0F5"/>
<stop offset="0.749831" stop-color="#8394AD"/>
<stop offset="1" stop-color="#C7D4E7"/>
</linearGradient>
<linearGradient id="paint1_linear" x1="232.167" y1="57.1863" x2="169.838" y2="18.4018" gradientUnits="userSpaceOnUse">
<stop stop-color="#73E07E"/>
<stop offset="1" stop-color="#2DC962"/>
</linearGradient>
<linearGradient id="paint2_linear" x1="165.501" y1="43.8343" x2="178.063" y2="43.6019" gradientUnits="userSpaceOnUse">
<stop stop-color="#A0FF91"/>
<stop offset="1" stop-color="#8BEB7B" stop-opacity="0"/>
</linearGradient>
<radialGradient id="paint3_radial" cx="0" cy="0" r="1" gradientUnits="userSpaceOnUse" gradientTransform="translate(234.301 36.2225) rotate(-175.513) scale(114)">
<stop stop-color="#A6F05C"/>
<stop offset="0.196742" stop-color="#9EEA70"/>
<stop offset="1" stop-color="#27994E"/>
</radialGradient>
<radialGradient id="paint4_radial" cx="0" cy="0" r="1" gradientUnits="userSpaceOnUse" gradientTransform="translate(236.746 44.3897) rotate(-180) scale(91.1289 87.7983)">
<stop stop-color="#6DC485"/>
<stop offset="0.196742" stop-color="#8FDB89"/>
<stop offset="1" stop-color="#108130"/>
</radialGradient>
<radialGradient id="paint5_radial" cx="0" cy="0" r="1" gradientUnits="userSpaceOnUse" gradientTransform="translate(236.746 44.3897) rotate(-180) scale(91.1289 87.7983)">
<stop stop-color="#6DC485"/>
<stop offset="0.196742" stop-color="#8FDB89"/>
<stop offset="1" stop-color="#108130"/>
</radialGradient>
<linearGradient id="paint6_linear" x1="165.501" y1="43.8343" x2="238.381" y2="54.9652" gradientUnits="userSpaceOnUse">
<stop stop-color="#A0FF91"/>
<stop offset="1" stop-color="#8BEB7B" stop-opacity="0"/>
</linearGradient>
<radialGradient id="paint7_radial" cx="0" cy="0" r="1" gradientUnits="userSpaceOnUse" gradientTransform="translate(169.397 16.4842) rotate(28.57) scale(8.69714)">
<stop offset="0.132611" stop-color="white"/>
<stop offset="0.15407" stop-color="#E4F1FF"/>
<stop offset="0.749831" stop-color="#8394AD"/>
<stop offset="0.935641" stop-color="#D6E2F4"/>
<stop offset="1" stop-color="#C4D0E2"/>
</radialGradient>
<linearGradient id="paint8_linear" x1="46.9043" y1="51.1033" x2="169.514" y2="187.764" gradientUnits="userSpaceOnUse">
<stop stop-color="#53BEE0"/>
<stop offset="1" stop-color="#278CAC"/>
</linearGradient>
<linearGradient id="paint9_linear" x1="-10.6867" y1="4.02385" x2="188.053" y2="-43.0245" gradientUnits="userSpaceOnUse">
<stop stop-color="#FFB37B"/>
<stop offset="1" stop-color="#FF6182"/>
</linearGradient>
<linearGradient id="paint10_linear" x1="225.192" y1="17.9288" x2="127.145" y2="84.6831" gradientUnits="userSpaceOnUse">
<stop offset="0.387532" stop-color="white"/>
<stop offset="1" stop-color="white" stop-opacity="0"/>
</linearGradient>
<linearGradient id="paint11_linear" x1="55.9895" y1="45.0159" x2="165.395" y2="177.843" gradientUnits="userSpaceOnUse">
<stop stop-color="#6C6874"/>
<stop offset="1" stop-color="#5A3035"/>
</linearGradient>
<linearGradient id="paint12_linear" x1="55.9895" y1="45.0159" x2="165.395" y2="177.843" gradientUnits="userSpaceOnUse">
<stop stop-color="#F5E2E3"/>
<stop offset="1" stop-color="#ECD2D5"/>
</linearGradient>
<linearGradient id="paint13_linear" x1="126.562" y1="92.3627" x2="142.739" y2="142.426" gradientUnits="userSpaceOnUse">
<stop stop-color="#44D92C" stop-opacity="0.25"/>
<stop offset="1" stop-color="#34CE1B" stop-opacity="0"/>
</linearGradient>
<linearGradient id="paint14_linear" x1="95.4836" y1="109.745" x2="154.831" y2="70.7088" gradientUnits="userSpaceOnUse">
<stop stop-color="#FF8E25"/>
<stop offset="0.459757" stop-color="#DED723"/>
<stop offset="1" stop-color="#10B117"/>
</linearGradient>
<linearGradient id="paint15_linear" x1="36.305" y1="60.5766" x2="193.746" y2="73.0735" gradientUnits="userSpaceOnUse">
<stop stop-color="#B1BCCD"/>
<stop offset="1" stop-color="#8394AD"/>
</linearGradient>
<linearGradient id="paint16_linear" x1="50.3265" y1="56.0454" x2="207.767" y2="68.5423" gradientUnits="userSpaceOnUse">
<stop stop-color="#B1BCCD"/>
<stop offset="1" stop-color="#8394AD"/>
</linearGradient>
<linearGradient id="paint17_linear" x1="64.3499" y1="51.5141" x2="221.79" y2="64.0111" gradientUnits="userSpaceOnUse">
<stop stop-color="#B1BCCD"/>
<stop offset="1" stop-color="#8394AD"/>
</linearGradient>
<linearGradient id="paint18_linear" x1="78.3724" y1="46.983" x2="235.813" y2="59.4799" gradientUnits="userSpaceOnUse">
<stop stop-color="#B1BCCD"/>
<stop offset="1" stop-color="#8394AD"/>
</linearGradient>
<linearGradient id="paint19_linear" x1="54.54" y1="56.0908" x2="250.777" y2="149.734" gradientUnits="userSpaceOnUse">
<stop stop-color="#B1BCCD"/>
<stop offset="1" stop-color="#8394AD"/>
</linearGradient>
<linearGradient id="paint20_linear" x1="115.47" y1="45.576" x2="163.522" y2="38.5424" gradientUnits="userSpaceOnUse">
<stop stop-color="#C8D1DE"/>
<stop offset="1" stop-color="#C1CBD9"/>
</linearGradient>
<radialGradient id="paint21_radial" cx="0" cy="0" r="1" gradientUnits="userSpaceOnUse" gradientTransform="translate(10.8271 9.73136) rotate(90) scale(9.73136 10.8271)">
<stop offset="0.364583" stop-color="#0F371A" stop-opacity="0.37"/>
<stop offset="0.660836" stop-color="#0F371A" stop-opacity="0.17"/>
<stop offset="0.739601" stop-color="#0F371A" stop-opacity="0.1"/>
<stop offset="1" stop-color="#0F371A" stop-opacity="0"/>
</radialGradient>
<linearGradient id="paint22_linear" x1="16.634" y1="15.6576" x2="-0.285199" y2="4.15227" gradientUnits="userSpaceOnUse">
<stop stop-color="#92FF9D"/>
<stop offset="0.510301" stop-color="#5FDB7B"/>
<stop offset="0.684558" stop-color="#22AF52"/>
<stop offset="1" stop-color="#8CFDB2"/>
</linearGradient>
<linearGradient id="paint23_linear" x1="16.634" y1="15.6576" x2="-0.285199" y2="4.15227" gradientUnits="userSpaceOnUse">
<stop stop-color="#73E07E"/>
<stop offset="1" stop-color="#2DC962"/>
</linearGradient>
<radialGradient id="paint24_radial" cx="0" cy="0" r="1" gradientUnits="userSpaceOnUse" gradientTransform="translate(138.85 101.791) rotate(57.1292) scale(8.11015 8.83022)">
<stop/>
<stop offset="1" stop-opacity="0"/>
</radialGradient>
<linearGradient id="paint25_linear" x1="64.5106" y1="131.653" x2="71.136" y2="109.813" gradientUnits="userSpaceOnUse">
<stop stop-color="#87E9FF"/>
<stop offset="1" stop-color="#6AB8FF"/>
</linearGradient>
<radialGradient id="paint26_radial" cx="0" cy="0" r="1" gradientUnits="userSpaceOnUse" gradientTransform="translate(69.7043 127.575) rotate(14.8384) scale(25.5029 10.7494)">
<stop stop-color="#83FFE9"/>
<stop offset="0.3403" stop-color="#83FFE9" stop-opacity="0.413314"/>
<stop offset="1" stop-color="#83FFE9" stop-opacity="0"/>
</radialGradient>
<linearGradient id="paint27_linear" x1="88.3139" y1="110.317" x2="85.8833" y2="121.386" gradientUnits="userSpaceOnUse">
<stop stop-color="#ADEBFF"/>
<stop offset="1" stop-color="#8AE3FF" stop-opacity="0"/>
</linearGradient>
<linearGradient id="paint28_linear" x1="85.7902" y1="119.561" x2="85.7902" y2="173.735" gradientUnits="userSpaceOnUse">
<stop stop-color="#82E8FF"/>
<stop offset="1" stop-color="#91AFFF"/>
</linearGradient>
<linearGradient id="paint29_linear" x1="53.4831" y1="134.478" x2="77.4785" y2="170.746" gradientUnits="userSpaceOnUse">
<stop stop-color="#68C1D5"/>
<stop offset="1" stop-color="#5E76B6"/>
</linearGradient>
<linearGradient id="paint30_linear" x1="-4.38374" y1="52.4621" x2="-32.9223" y2="3.72418" gradientUnits="userSpaceOnUse">
<stop stop-color="#FFD243"/>
<stop offset="0.645837" stop-color="#FFF27B"/>
</linearGradient>
<linearGradient id="paint31_linear" x1="21.2209" y1="63.5442" x2="99.6694" y2="267.747" gradientUnits="userSpaceOnUse">
<stop stop-color="#FFDE00"/>
<stop offset="1" stop-color="#F6780D"/>
</linearGradient>
<linearGradient id="paint32_linear" x1="-0.53118" y1="96.7009" x2="62.531" y2="186.205" gradientUnits="userSpaceOnUse">
<stop stop-color="#FFDE00"/>
<stop offset="1" stop-color="#F6780D"/>
</linearGradient>
<linearGradient id="paint33_linear" x1="34.6406" y1="86.6596" x2="40.0473" y2="90.0559" gradientUnits="userSpaceOnUse">
<stop stop-color="#56FF9A"/>
<stop offset="1" stop-color="#6DCAFF" stop-opacity="0"/>
</linearGradient>
<linearGradient id="paint34_linear" x1="57.2462" y1="91.2744" x2="37.7465" y2="80.5513" gradientUnits="userSpaceOnUse">
<stop stop-color="#73E07E"/>
<stop offset="1" stop-color="#2DC962"/>
</linearGradient>
<clipPath id="clip0">
<rect width="73.6449" height="136.061" fill="white" transform="matrix(0.951554 -0.307482 0.54954 0.835467 57.8027 52.3969)"/>
</clipPath>
</defs>
</svg>
