<svg width="158" height="47" viewBox="0 0 158 47" fill="none" xmlns="http://www.w3.org/2000/svg">
<path d="M152.163 46.6995H5.83744C2.62685 46.6995 0 44.0727 0 40.8621V5.83744C0 2.62685 2.62685 0 5.83744 0H152.163C155.373 0 158 2.62685 158 5.83744V40.8621C158 44.0727 155.373 46.6995 152.163 46.6995Z" fill="#22272B"/>
<path d="M55.363 11.9551C55.363 12.9358 55.0711 13.718 54.4874 14.2901C53.8336 14.9789 52.9697 15.3292 51.9189 15.3292C50.9032 15.3292 50.0509 14.9789 49.3388 14.2784C48.6266 13.5779 48.2764 12.7023 48.2764 11.6749C48.2764 10.6359 48.6266 9.77192 49.3388 9.07143C50.0509 8.37094 50.9032 8.02069 51.9189 8.02069C52.421 8.02069 52.8996 8.11409 53.3549 8.31256C53.8103 8.51104 54.1722 8.76788 54.4524 9.09478L53.8336 9.71355C53.3666 9.16483 52.7362 8.88463 51.9189 8.88463C51.1834 8.88463 50.5413 9.14148 50.0043 9.66685C49.4672 10.1805 49.1987 10.8577 49.1987 11.6866C49.1987 12.5155 49.4672 13.1927 50.0043 13.7064C50.5413 14.2201 51.1834 14.4886 51.9189 14.4886C52.7011 14.4886 53.3549 14.2317 53.8803 13.7064C54.2189 13.3678 54.4174 12.8891 54.4641 12.282H51.9189V11.4298H55.3163C55.3397 11.6166 55.363 11.7917 55.363 11.9551Z" fill="white" stroke="white" stroke-width="0.259442" stroke-miterlimit="10"/>
<path d="M60.7444 9.03643H57.5572V11.2547H60.4292V12.0952H57.5572V14.3135H60.7444V15.1774H56.6582V8.17249H60.7444V9.03643Z" fill="white" stroke="white" stroke-width="0.259442" stroke-miterlimit="10"/>
<path d="M64.539 15.1774H63.6401V9.03643H61.6787V8.17249H66.4888V9.03643H64.5274V15.1774H64.539Z" fill="white" stroke="white" stroke-width="0.259442" stroke-miterlimit="10"/>
<path d="M69.9795 15.1774V8.17249H70.8785V15.1774H69.9795Z" fill="white" stroke="white" stroke-width="0.259442" stroke-miterlimit="10"/>
<path d="M74.8711 15.1774H73.9721V9.03643H72.0107V8.17249H76.8208V9.03643H74.8594V15.1774H74.8711Z" fill="white" stroke="white" stroke-width="0.259442" stroke-miterlimit="10"/>
<path d="M85.9387 14.2668C85.2499 14.979 84.3977 15.3292 83.3703 15.3292C82.3429 15.3292 81.4906 14.979 80.8018 14.2668C80.113 13.5546 79.7744 12.6907 79.7744 11.675C79.7744 10.6593 80.113 9.78366 80.8018 9.08317C81.4906 8.371 82.3429 8.02075 83.3703 8.02075C84.386 8.02075 85.2382 8.371 85.9387 9.08317C86.6276 9.79533 86.9778 10.6593 86.9778 11.675C86.9661 12.7024 86.6276 13.5663 85.9387 14.2668ZM81.4673 13.6831C81.981 14.2084 82.6231 14.4653 83.3703 14.4653C84.1175 14.4653 84.7596 14.2084 85.2733 13.6831C85.787 13.1577 86.0555 12.4922 86.0555 11.675C86.0555 10.8577 85.7986 10.1923 85.2733 9.66691C84.7596 9.14154 84.1175 8.87302 83.3703 8.87302C82.6231 8.87302 81.981 9.12987 81.4673 9.65524C80.9536 10.1923 80.6851 10.8577 80.6851 11.675C80.6851 12.4922 80.9536 13.1577 81.4673 13.6831Z" fill="white" stroke="white" stroke-width="0.259442" stroke-miterlimit="10"/>
<path d="M88.2393 15.1774V8.17249H89.3367L92.7458 13.6247H92.7808L92.7458 12.2704V8.17249H93.6447V15.1774H92.7107L89.1499 9.4684H89.1149L89.1499 10.8227V15.1774H88.2393Z" fill="white" stroke="white" stroke-width="0.259442" stroke-miterlimit="10"/>
<path d="M79.552 25.3928C76.8084 25.3928 74.5668 27.4826 74.5668 30.3547C74.5668 33.215 76.8084 35.3165 79.552 35.3165C82.2956 35.3165 84.5372 33.215 84.5372 30.3547C84.5372 27.4826 82.2956 25.3928 79.552 25.3928ZM79.552 33.3668C78.0459 33.3668 76.75 32.1292 76.75 30.3547C76.75 28.5684 78.0459 27.3425 79.552 27.3425C81.0581 27.3425 82.354 28.5684 82.354 30.3547C82.354 32.1292 81.0464 33.3668 79.552 33.3668ZM68.671 25.3928C65.9274 25.3928 63.6858 27.4826 63.6858 30.3547C63.6858 33.215 65.9274 35.3165 68.671 35.3165C71.4146 35.3165 73.6562 33.215 73.6562 30.3547C73.6562 27.4826 71.4146 25.3928 68.671 25.3928ZM68.671 33.3668C67.165 33.3668 65.869 32.1292 65.869 30.3547C65.869 28.5684 67.165 27.3425 68.671 27.3425C70.1771 27.3425 71.473 28.5684 71.473 30.3547C71.473 32.1292 70.1771 33.3668 68.671 33.3668ZM55.7353 26.9222V29.0237H60.7788C60.627 30.2029 60.2301 31.0785 59.6347 31.6739C58.8991 32.4094 57.755 33.215 55.7469 33.215C52.6414 33.215 50.213 30.7166 50.213 27.6111C50.213 24.5055 52.6414 22.0071 55.7469 22.0071C57.4164 22.0071 58.6423 22.6609 59.5413 23.5132L61.024 22.0305C59.7631 20.828 58.0936 19.9056 55.7353 19.9056C51.4856 19.9056 47.9131 23.3614 47.9131 27.6227C47.9131 31.8724 51.4856 35.3398 55.7353 35.3398C58.0352 35.3398 59.7631 34.5926 61.1174 33.18C62.5067 31.7907 62.9387 29.8293 62.9387 28.2532C62.9387 27.7628 62.9036 27.3075 62.8219 26.9339H55.7353V26.9222ZM108.634 28.5567C108.226 27.4476 106.965 25.3928 104.384 25.3928C101.828 25.3928 99.7028 27.4009 99.7028 30.3547C99.7028 33.1333 101.804 35.3165 104.63 35.3165C106.906 35.3165 108.226 33.9272 108.763 33.1216L107.07 31.9891C106.509 32.8181 105.739 33.3668 104.63 33.3668C103.521 33.3668 102.727 32.8531 102.225 31.8607L108.868 29.1171L108.634 28.5567ZM101.863 30.2146C101.804 28.2999 103.345 27.3192 104.455 27.3192C105.318 27.3192 106.054 27.7512 106.299 28.3699L101.863 30.2146ZM96.4689 35.0246H98.6521V20.431H96.4689V35.0246ZM92.8964 26.5019H92.8147C92.3243 25.9182 91.3903 25.3928 90.1995 25.3928C87.7127 25.3928 85.4361 27.576 85.4361 30.378C85.4361 33.1566 87.7127 35.3282 90.1995 35.3282C91.3787 35.3282 92.3243 34.8028 92.8147 34.1957H92.8847V34.9079C92.8847 36.8109 91.869 37.8266 90.2345 37.8266C88.9036 37.8266 88.0747 36.8692 87.7361 36.0637L85.8331 36.8576C86.3818 38.1768 87.8295 39.788 90.2345 39.788C92.7913 39.788 94.9512 38.2819 94.9512 34.616V25.6964H92.8847V26.5019H92.8964ZM90.3863 33.3668C88.8802 33.3668 87.6193 32.1059 87.6193 30.378C87.6193 28.6268 88.8802 27.3542 90.3863 27.3542C91.869 27.3542 93.0365 28.6384 93.0365 30.378C93.0482 32.1059 91.8807 33.3668 90.3863 33.3668ZM118.861 20.431H113.643V35.0246H115.826V29.4907H118.873C121.29 29.4907 123.66 27.7395 123.66 24.9609C123.66 22.1822 121.266 20.431 118.861 20.431ZM118.908 27.4593H115.814V22.4508H118.908C120.542 22.4508 121.465 23.805 121.465 24.9492C121.465 26.0933 120.542 27.4593 118.908 27.4593ZM132.381 25.3695C130.805 25.3695 129.17 26.07 128.493 27.5994L130.431 28.4049C130.84 27.5994 131.61 27.3309 132.416 27.3309C133.548 27.3309 134.692 28.008 134.704 29.2105V29.3623C134.307 29.1405 133.467 28.8019 132.428 28.8019C130.338 28.8019 128.225 29.946 128.225 32.0825C128.225 34.0322 129.929 35.2931 131.844 35.2931C133.303 35.2931 134.12 34.6393 134.622 33.8688H134.692V35.0013H136.794V29.409C136.806 26.8172 134.868 25.3695 132.381 25.3695ZM132.112 33.3668C131.4 33.3668 130.408 33.0049 130.408 32.1292C130.408 31.0084 131.645 30.5765 132.719 30.5765C133.677 30.5765 134.132 30.7866 134.704 31.0668C134.541 32.4094 133.373 33.3668 132.112 33.3668ZM144.464 25.6847L141.966 32.0125H141.896L139.304 25.6847H136.957L140.845 34.5343L138.627 39.4494H140.903L146.893 25.6847H144.464ZM124.851 35.0246H127.034V20.431H124.851V35.0246Z" fill="white"/>
<path d="M12.1884 8.80279C11.8498 9.16471 11.6514 9.72511 11.6514 10.4373V36.2621C11.6514 36.9859 11.8498 37.5463 12.1884 37.8966L12.2701 37.9783L26.7353 23.5248V23.3497V23.1746L12.2701 8.72107L12.1884 8.80279Z" fill="url(#paint0_linear)"/>
<path d="M31.5571 28.3465L26.7354 23.5248V23.3497V23.1746L31.5571 18.3528L31.6621 18.4112L37.3712 21.6568C39.0056 22.5791 39.0056 24.0969 37.3712 25.0309L31.6621 28.2765L31.5571 28.3465Z" fill="url(#paint1_linear)"/>
<path d="M31.6622 28.2882L26.7354 23.3498L12.1885 37.8967C12.7255 38.4687 13.6128 38.5388 14.6169 37.9667L31.6622 28.2882Z" fill="url(#paint2_linear)"/>
<path d="M31.6631 18.4229L14.6061 8.73279C13.6021 8.16072 12.7148 8.23077 12.1777 8.80284L26.7363 23.3497L31.6631 18.4229Z" fill="url(#paint3_linear)"/>
<path opacity="0.2" d="M31.5571 28.1715L14.6052 37.8033C13.6595 38.3403 12.8072 38.3053 12.2702 37.815L12.1885 37.8967L12.2702 37.9784C12.8189 38.4687 13.6595 38.5038 14.6052 37.9667L31.6622 28.2766L31.5571 28.1715Z" fill="black"/>
<path opacity="0.12" d="M12.1884 37.7333C11.8498 37.3713 11.6514 36.811 11.6514 36.0988V36.2739C11.6514 36.9978 11.8498 37.5581 12.1884 37.9084L12.2701 37.8267L12.1884 37.7333Z" fill="black"/>
<path opacity="0.12" d="M37.3717 24.8675L31.5459 28.1715L31.651 28.2766L37.36 25.0309C38.1772 24.5639 38.5858 23.9569 38.5858 23.3498C38.5275 23.8985 38.1189 24.4472 37.3717 24.8675Z" fill="black"/>
<path opacity="0.25" d="M14.6051 8.89738L37.3711 21.8331C38.1066 22.2534 38.5269 22.7905 38.5969 23.3509C38.5969 22.7438 38.1883 22.125 37.3711 21.6697L14.6051 8.73393C12.9706 7.81161 11.6396 8.58215 11.6396 10.4501V10.6253C11.6396 8.7456 12.9823 7.97506 14.6051 8.89738Z" fill="white"/>
<defs>
<linearGradient id="paint0_linear" x1="25.4506" y1="10.1685" x2="5.85737" y2="29.7618" gradientUnits="userSpaceOnUse">
<stop stop-color="#00A0FF"/>
<stop offset="0.00657445" stop-color="#00A1FF"/>
<stop offset="0.2601" stop-color="#00BEFF"/>
<stop offset="0.5122" stop-color="#00D2FF"/>
<stop offset="0.7604" stop-color="#00DFFF"/>
<stop offset="1" stop-color="#00E3FF"/>
</linearGradient>
<linearGradient id="paint1_linear" x1="39.501" y1="23.3514" x2="11.2514" y2="23.3514" gradientUnits="userSpaceOnUse">
<stop stop-color="#FFE000"/>
<stop offset="0.4087" stop-color="#FFBD00"/>
<stop offset="0.7754" stop-color="#FFA500"/>
<stop offset="1" stop-color="#FF9C00"/>
</linearGradient>
<linearGradient id="paint2_linear" x1="28.985" y1="26.0305" x2="2.41497" y2="52.6006" gradientUnits="userSpaceOnUse">
<stop stop-color="#FF3A44"/>
<stop offset="1" stop-color="#C31162"/>
</linearGradient>
<linearGradient id="paint3_linear" x1="8.52023" y1="0.205808" x2="20.3849" y2="12.0704" gradientUnits="userSpaceOnUse">
<stop stop-color="#32A071"/>
<stop offset="0.0685" stop-color="#2DA771"/>
<stop offset="0.4762" stop-color="#15CF74"/>
<stop offset="0.8009" stop-color="#06E775"/>
<stop offset="1" stop-color="#00F076"/>
</linearGradient>
</defs>
</svg>
