<svg width="40" height="40" viewBox="0 0 40 40" fill="none" xmlns="http://www.w3.org/2000/svg">
<rect width="40" height="40" rx="20" fill="#F1F4FF"/>
<path fill-rule="evenodd" clip-rule="evenodd" d="M20.0007 12C17.8281 12 17.5554 12.0095 16.702 12.0483C15.8504 12.0873 15.269 12.2222 14.7604 12.42C14.2342 12.6243 13.7879 12.8977 13.3432 13.3425C12.8982 13.7872 12.6248 14.2335 12.4198 14.7595C12.2215 15.2683 12.0865 15.8498 12.0482 16.7012C12.01 17.5545 12 17.8273 12 20C12 22.1727 12.0097 22.4445 12.0483 23.2978C12.0875 24.1495 12.2223 24.7308 12.42 25.2395C12.6245 25.7657 12.8978 26.212 13.3427 26.6567C13.7872 27.1017 14.2335 27.3757 14.7594 27.58C15.2684 27.7778 15.8499 27.9127 16.7014 27.9517C17.5547 27.9905 17.8272 28 19.9998 28C22.1726 28 22.4444 27.9905 23.2978 27.9517C24.1495 27.9127 24.7315 27.7778 25.2405 27.58C25.7665 27.3757 26.2121 27.1017 26.6567 26.6567C27.1017 26.212 27.375 25.7657 27.58 25.2397C27.7767 24.7308 27.9117 24.1493 27.9517 23.298C27.99 22.4447 28 22.1727 28 20C28 17.8273 27.99 17.5547 27.9517 16.7013C27.9117 15.8497 27.7767 15.2683 27.58 14.7597C27.375 14.2335 27.1017 13.7872 26.6567 13.3425C26.2116 12.8975 25.7666 12.6242 25.24 12.42C24.73 12.2222 24.1483 12.0873 23.2966 12.0483C22.4433 12.0095 22.1716 12 19.9983 12H20.0007ZM19.2834 13.4418C19.4964 13.4415 19.734 13.4418 20.001 13.4418C22.1371 13.4418 22.3902 13.4495 23.2337 13.4878C24.0137 13.5235 24.4371 13.6538 24.7191 13.7633C25.0924 13.9083 25.3586 14.0816 25.6384 14.3616C25.9184 14.6416 26.0918 14.9083 26.2371 15.2816C26.3466 15.5633 26.4771 15.9866 26.5126 16.7666C26.5509 17.61 26.5593 17.8633 26.5593 19.9983C26.5593 22.1333 26.5509 22.3866 26.5126 23.23C26.4769 24.01 26.3466 24.4333 26.2371 24.715C26.0921 25.0883 25.9184 25.3541 25.6384 25.634C25.3584 25.914 25.0926 26.0873 24.7191 26.2323C24.4374 26.3423 24.0137 26.4723 23.2337 26.508C22.3904 26.5463 22.1371 26.5546 20.001 26.5546C17.8648 26.5546 17.6117 26.5463 16.7683 26.508C15.9883 26.472 15.565 26.3416 15.2828 26.2321C14.9095 26.0871 14.6428 25.9138 14.3628 25.6338C14.0828 25.3538 13.9095 25.0878 13.7641 24.7143C13.6546 24.4326 13.5241 24.0093 13.4886 23.2293C13.4503 22.386 13.4426 22.1326 13.4426 19.9963C13.4426 17.86 13.4503 17.608 13.4886 16.7646C13.5243 15.9846 13.6546 15.5613 13.7641 15.2793C13.9091 14.906 14.0828 14.6393 14.3628 14.3593C14.6428 14.0793 14.9095 13.906 15.2828 13.7606C15.5648 13.6506 15.9883 13.5206 16.7683 13.4848C17.5063 13.4515 17.7923 13.4415 19.2834 13.4398V13.4418ZM24.2709 14.7699C23.741 14.7699 23.311 15.1994 23.311 15.7295C23.311 16.2594 23.741 16.6894 24.2709 16.6894C24.8009 16.6894 25.2308 16.2594 25.2308 15.7295C25.2308 15.1995 24.8009 14.7699 24.2709 14.7699ZM20.0009 15.8915C17.732 15.8915 15.8925 17.731 15.8925 19.9998C15.8925 22.2687 17.732 24.1073 20.0009 24.1073C22.2697 24.1073 24.1086 22.2687 24.1086 19.9998C24.1086 17.731 22.2697 15.8915 20.0009 15.8915ZM20.0009 17.3331C21.4736 17.3331 22.6676 18.527 22.6676 19.9998C22.6676 21.4725 21.4736 22.6665 20.0009 22.6665C18.5281 22.6665 17.3342 21.4725 17.3342 19.9998C17.3342 18.527 18.5281 17.3331 20.0009 17.3331Z" fill="#366EFF"/>
</svg>
