<svg width="43" height="60" viewBox="0 0 43 60" fill="none" xmlns="http://www.w3.org/2000/svg">
<path d="M29.8184 45.3409V59.4667C29.8184 59.8474 30.2321 60.0836 30.5603 59.8908L42.059 53.126C42.2094 53.0377 42.3018 52.8759 42.3018 52.7015V39.2771C42.3018 38.9064 41.9075 38.6688 41.5796 38.8418L30.081 44.9053C29.9194 44.9908 29.8184 45.1579 29.8184 45.3409Z" fill="#EB474A"/>
<path d="M26.6175 28.7854L15.3522 22.8434C15.2119 22.7695 15.0448 22.7674 14.9031 22.8383L1.81559 29.3575C1.45677 29.5367 1.45087 30.0467 1.80552 30.2335L13.1614 36.2238C13.3028 36.2981 13.4709 36.2995 13.6133 36.2276L26.6098 29.6604C26.9666 29.4801 26.9714 28.9723 26.6175 28.7854Z" fill="#F3734D"/>
<path d="M12.4414 37.1465L0.721815 30.9649C0.394255 30.7919 0 31.0295 0 31.4001V44.8436C0 45.018 0.0923996 45.1795 0.242806 45.2681L11.962 52.1587C12.2903 52.3522 12.704 52.1149 12.704 51.7342V37.5821C12.704 37.399 12.6029 37.2316 12.4414 37.1465Z" fill="#D84850"/>
<path d="M14.0288 37.5893V51.7623C14.0288 52.1395 14.4359 52.3768 14.7642 52.1903L28.2463 44.5317C28.4005 44.4445 28.4957 44.2809 28.4957 44.1041V30.5865C28.4957 30.2173 28.1042 29.9794 27.7763 30.1496L14.2942 37.1523C14.1313 37.2371 14.0288 37.4056 14.0288 37.5893Z" fill="#EB474A"/>
<path d="M16.1917 53.77L27.7707 59.9416C28.0989 60.1163 28.4945 59.8784 28.4945 59.5067V46.7589C28.4945 46.3813 28.0874 46.1441 27.7592 46.3306L16.1803 52.9082C15.8423 53.0996 15.8489 53.588 16.1917 53.77Z" fill="#BF3246"/>
<path d="M30.1878 28.9114C29.9605 29.0318 29.8184 29.268 29.8184 29.5252V42.8192C29.8184 43.2123 30.237 43.4638 30.5841 43.2792L41.9333 37.2427C42.1601 37.1221 42.3018 36.8862 42.3018 36.6294V23.3574C42.3018 22.9647 41.8838 22.7132 41.5368 22.8971L30.1878 28.9114Z" fill="#EB474A"/>
<path d="M29.8343 13.7864L29.8193 27.1761C29.819 27.5474 30.2146 27.7857 30.5429 27.6113L42.0412 21.4922C42.2017 21.4068 42.3017 21.24 42.3021 21.058L42.317 7.97434C42.3177 7.60718 41.9304 7.36855 41.6028 7.53424L30.1045 13.3473C29.9385 13.431 29.8346 13.6009 29.8343 13.7864Z" fill="#7CAA2D"/>
<path d="M28.1135 13.3504L15.9066 6.90929C15.5794 6.73665 15.1858 6.9732 15.1844 7.34279L15.1299 21.5366C15.1292 21.7218 15.2327 21.892 15.398 21.9771L27.605 28.2188C27.9318 28.3859 28.3202 28.1493 28.3216 27.7822L28.3761 13.7877C28.3768 13.604 28.2757 13.4358 28.1135 13.3504Z" fill="#56932F"/>
<path d="M40.7873 5.84439L29.0771 0.0507737C28.9458 -0.0138353 28.7926 -0.0169675 28.6589 0.042431L16.7649 5.33099C16.388 5.49807 16.372 6.02745 16.7381 6.2178L28.9697 12.5707C29.1115 12.6443 29.2799 12.6447 29.4217 12.5717L40.7942 6.72391C41.1534 6.53877 41.1496 6.02363 40.7873 5.84439Z" fill="#86BA2A"/>
</svg>
