<svg width="228" height="60" viewBox="0 0 228 60" fill="none" xmlns="http://www.w3.org/2000/svg">
<path d="M79.8556 25.1188C80.8218 24.8525 81.8544 24.7197 83.02 24.7197C83.8858 24.7197 84.2848 25.0525 84.2848 25.7169V37.886C84.2848 39.0157 84.6517 39.4816 85.3841 39.4816H86.2498C86.3838 39.9469 86.483 40.4457 86.483 40.9775C86.483 41.9081 85.3506 42.9397 83.5865 42.9397C81.6876 42.9397 79.8556 41.8753 79.8556 38.4507V25.1188ZM79.5564 20.3307C79.5564 18.868 80.589 18.0039 81.9874 18.0039C83.2864 18.0039 84.5183 18.9342 84.5183 20.431C84.5183 21.9269 83.5195 22.7582 82.0544 22.7582C80.7555 22.7582 79.5564 21.8601 79.5564 20.3307Z" fill="#31353E"/>
<path d="M91.7528 32.0472H99.2242C99.3928 31.712 99.4589 31.3104 99.4589 30.8741C99.4589 28.9634 98.2816 27.7572 96.2288 27.7572C93.7721 27.7572 92.09 29.3657 91.7528 32.0472ZM87.1763 33.6557C87.1763 27.8246 91.2812 24.238 96.3303 24.238C100.872 24.238 103.8 27.0871 103.8 30.8741C103.8 31.947 103.565 33.0187 103.161 33.7899C102.623 34.8289 101.883 35.1978 100.435 35.1978H91.7528C92.1906 38.0132 94.3104 39.4201 97.2046 39.4201C98.7864 39.4201 100.233 39.1189 101.512 38.4495C101.815 38.8848 102.118 39.7225 102.118 40.2924C102.118 41.3653 99.8628 42.9399 96.2965 42.9399C90.9456 42.9399 87.1763 39.0187 87.1763 33.6557Z" fill="#31353E"/>
<path d="M107.455 36.3358V28.2959H105.448C104.822 28.2959 104.493 27.929 104.493 27.1289C104.493 26.3278 104.592 25.4274 104.756 24.7266H107.455V19.79C108.409 19.5232 109.428 19.3896 110.579 19.3896C111.436 19.3896 111.862 19.723 111.862 20.3905V24.7266H116.667C117.259 24.7266 117.555 25.0602 117.555 25.8604V28.2959H111.862V36.5685C111.862 38.5704 112.948 39.3379 114.561 39.3379C115.416 39.3379 116.403 39.1708 117.062 38.8701C117.39 39.2705 117.653 40.0706 117.653 40.672C117.653 41.6725 116.041 42.9401 113.344 42.9401C109.823 42.9398 107.455 40.6387 107.455 36.3358Z" fill="#31353E"/>
<path d="M138.436 21.3415C134.185 21.3415 130.478 24.5228 130.478 30.0151C130.478 36.4441 134.9 40.3282 140.069 40.3282C143.47 40.3282 145.034 39.0891 145.034 37.2804V33.3296H140.205C139.729 33.3296 139.491 33.0954 139.491 32.4921C139.491 31.9564 139.593 31.2536 139.729 30.7516H147.347C147.892 30.7516 148.13 30.9851 148.13 31.6889V37.2473C148.13 40.6297 145.069 42.9399 140.001 42.9399C132.859 42.9399 127.35 37.8834 127.35 30.1149C127.35 22.9491 132.383 18.6968 138.403 18.6968C142.619 18.6968 145.919 20.572 147.551 23.3847C147.653 23.5849 147.721 23.786 147.721 23.9534C147.721 24.4891 147.45 24.824 146.803 25.0918C146.361 25.2929 145.715 25.46 145.069 25.5274C143.98 22.8153 141.532 21.3415 138.436 21.3415Z" fill="#31353E"/>
<path d="M153.925 32.316H163.706C163.874 31.9468 163.974 31.4109 163.974 30.9412C163.974 28.3947 162.328 26.7525 159.572 26.7525C156.581 26.7525 154.262 28.8637 153.925 32.316ZM164.747 39.3871C164.983 39.6892 165.151 40.2584 165.151 40.6944C165.151 41.5985 163.034 42.9399 159.807 42.9399C154.699 42.9399 150.901 39.0856 150.901 33.5893C150.901 27.7571 155.002 24.238 159.706 24.238C163.941 24.238 166.832 27.0199 166.832 30.8067C166.832 31.7789 166.63 32.7513 166.328 33.4214C165.858 34.4934 165.252 34.7951 164.009 34.7951H153.926C154.296 38.4824 156.984 40.426 160.277 40.426C161.857 40.4266 163.369 40.1246 164.747 39.3871Z" fill="#31353E"/>
<path d="M170.534 42.7027C169.836 42.7027 169.603 42.4993 169.603 41.9592V24.7457C170.268 24.5422 170.965 24.4405 171.597 24.4405C172.228 24.4405 172.494 24.6776 172.494 25.151V26.6049C173.99 25.219 176.25 24.238 178.543 24.238C182.632 24.238 184.858 27.1462 184.858 32.0503V38.7793C184.858 40.065 185.224 40.5724 186.021 40.5724H186.753C186.886 40.8769 186.919 41.2148 186.919 41.6201C186.919 42.2294 186.121 42.9399 184.825 42.9399C183.262 42.9399 181.967 42.0269 181.967 39.0164V31.8472C181.967 28.5331 180.637 26.7746 177.778 26.7746C175.984 26.7746 173.924 27.5528 172.494 28.939V42.703H170.534V42.7027Z" fill="#31353E"/>
<path d="M188.684 24.9084C189.377 24.7068 190.104 24.6066 190.762 24.6066C191.421 24.6066 191.697 24.841 191.697 25.3101V38.8164C191.697 40.091 192.078 40.5934 192.91 40.5934H193.672C193.81 40.8955 193.845 41.2304 193.845 41.6317C193.845 42.2359 193.014 42.9397 191.663 42.9397C190.034 42.9397 188.684 42.0346 188.684 39.0514V24.9084H188.684ZM188.304 19.7803C188.304 18.7083 189.065 18.0039 190.07 18.0039C191.075 18.0039 191.941 18.741 191.941 19.9145C191.941 20.9874 191.213 21.6572 190.174 21.6572C189.204 21.6572 188.304 20.92 188.304 19.7803Z" fill="#31353E"/>
<path d="M211.162 35.2081C211.162 40.037 208.055 42.9401 203.56 42.9401C199.031 42.9401 195.923 40.0367 195.923 35.2081V25.2247C196.585 25.0284 197.28 24.9309 197.907 24.9309C198.535 24.9309 198.799 25.1591 198.799 25.6157V35.4037C198.799 38.6015 200.947 40.5261 203.559 40.5261C206.204 40.5261 208.286 38.6015 208.286 35.4037V25.1265H210.236C210.897 25.1265 211.162 25.3556 211.162 25.8769V35.2081H211.162Z" fill="#31353E"/>
<path d="M220.696 26.7517C218.738 26.7517 217.465 27.8574 217.465 29.3658C217.465 31.0418 218.738 31.8797 221.676 32.6503C225.461 33.6222 227.093 35.2314 227.093 37.9123C227.093 40.9621 224.874 42.9399 220.762 42.9399C217.563 42.9399 215.115 41.532 215.115 40.6279C215.115 40.1581 215.311 39.5879 215.539 39.3208C216.943 40.0242 218.673 40.4602 220.402 40.4602C222.916 40.4602 224.253 39.6557 224.253 38.0462C224.253 36.6386 223.405 35.8009 220.696 35.164C216.42 34.1593 214.625 32.282 214.625 29.3658C214.625 26.3494 217.073 24.238 220.761 24.238C223.47 24.238 225.722 25.4106 226.734 27.2538C226.832 27.4551 226.93 27.6568 226.93 27.8574C226.93 28.1926 226.768 28.4276 226.473 28.6614C226.049 28.9972 225.331 29.2656 224.515 29.3658C223.928 27.6908 222.459 26.7517 220.696 26.7517Z" fill="#31353E"/>
<path fill-rule="evenodd" clip-rule="evenodd" d="M69.1071 42.6041C68.1563 42.8255 67.1487 42.9395 66.0973 42.9395H63.6916C59.4573 42.9395 57.3916 40.9503 57.3916 36.0774V26.6087C57.3916 21.7358 59.4573 19.7466 63.6916 19.7466H66.0973C67.1487 19.7466 68.1563 19.8606 69.1071 20.082C69.1713 20.0803 69.2372 20.0871 69.3033 20.1033C74.1204 21.2954 77.4787 25.3491 77.4787 31.3363C77.4787 37.3732 74.0674 41.4491 69.1071 42.6041ZM69.4987 24.5979C68.429 23.9274 67.1484 23.5922 65.7582 23.5922H64.5047C62.7428 23.5922 62.1334 24.4204 62.1334 26.9405V35.7456C62.1334 38.2657 62.7428 39.0939 64.5047 39.0939H65.7582C67.1484 39.0939 68.429 38.7587 69.4987 38.0882C70.2214 37.6154 70.8251 37.032 71.3036 36.3348C72.1424 35.0912 72.6335 33.4273 72.6345 31.3431C72.6335 29.2588 72.1424 27.5949 71.3036 26.3514C70.8251 25.6541 70.2214 25.0707 69.4987 24.5979Z" fill="#31353E"/>
<path d="M29.8186 45.3409V59.4666C29.8186 59.8473 30.2323 60.0835 30.5606 59.8907L42.0592 53.1259C42.2096 53.0377 42.302 52.8758 42.302 52.7014V39.277C42.302 38.9064 41.9078 38.6688 41.5799 38.8418L30.0812 44.9053C29.9197 44.9907 29.8186 45.1578 29.8186 45.3409Z" fill="#EB474A"/>
<path d="M26.6172 28.7855L15.352 22.8436C15.2116 22.7696 15.0446 22.7675 14.9028 22.8384L1.81535 29.3576C1.45652 29.5368 1.45062 30.0468 1.80528 30.2337L13.1612 36.2239C13.3025 36.2982 13.4707 36.2996 13.6131 36.2277L26.6096 29.6605C26.9663 29.4802 26.9712 28.9724 26.6172 28.7855Z" fill="#F3734D"/>
<path d="M12.4414 37.1464L0.721815 30.9648C0.394255 30.7918 0 31.0294 0 31.4V44.8436C0 45.018 0.0923996 45.1795 0.242806 45.2681L11.962 52.1586C12.2903 52.3521 12.704 52.1149 12.704 51.7342V37.582C12.704 37.399 12.6029 37.2315 12.4414 37.1464Z" fill="#D84850"/>
<path d="M14.0288 37.5893V51.7623C14.0288 52.1395 14.4359 52.3768 14.7642 52.1903L28.2463 44.5317C28.4005 44.4445 28.4957 44.2809 28.4957 44.1041V30.5865C28.4957 30.2173 28.1042 29.9794 27.7763 30.1496L14.2942 37.1523C14.1313 37.2371 14.0288 37.4056 14.0288 37.5893Z" fill="#EB474A"/>
<path d="M16.192 53.77L27.7709 59.9416C28.0992 60.1163 28.4948 59.8784 28.4948 59.5067V46.7589C28.4948 46.3813 28.0877 46.1441 27.7594 46.3306L16.1805 52.9082C15.8426 53.0996 15.8491 53.588 16.192 53.77Z" fill="#BF3246"/>
<path d="M30.188 28.9114C29.9607 29.0319 29.8186 29.268 29.8186 29.5253V42.8193C29.8186 43.2124 30.2373 43.4639 30.5843 43.2793L41.9336 37.2428C42.1603 37.1222 42.302 36.8863 42.302 36.6294V23.3575C42.302 22.9648 41.884 22.7132 41.537 22.8971L30.188 28.9114Z" fill="#EB474A"/>
<path d="M29.8345 13.7864L29.8196 27.1761C29.8192 27.5475 30.2149 27.7857 30.5431 27.6114L42.0414 21.4923C42.2019 21.4068 42.302 21.2401 42.3023 21.0581L42.3173 7.9744C42.3179 7.60725 41.9306 7.36861 41.6031 7.5343L30.1048 13.3474C29.9387 13.4311 29.8349 13.6009 29.8345 13.7864Z" fill="#7CAA2D"/>
<path d="M28.1135 13.3504L15.9066 6.90935C15.5794 6.73671 15.1858 6.97326 15.1844 7.34285L15.1299 21.5367C15.1292 21.7218 15.2327 21.892 15.398 21.9771L27.605 28.2189C27.9318 28.3859 28.3202 28.1494 28.3216 27.7822L28.3761 13.7878C28.3768 13.604 28.2757 13.4359 28.1135 13.3504Z" fill="#56932F"/>
<path d="M40.787 5.84439L29.0768 0.0507737C28.9455 -0.0138353 28.7923 -0.0169675 28.6586 0.042431L16.7646 5.33099C16.3878 5.49807 16.3718 6.02745 16.7379 6.2178L28.9695 12.5707C29.1112 12.6443 29.2797 12.6447 29.4214 12.5717L40.794 6.72391C41.1531 6.53877 41.1493 6.02363 40.787 5.84439Z" fill="#86BA2A"/>
</svg>
