<svg width="70" height="70" viewBox="0 0 70 70" fill="none" xmlns="http://www.w3.org/2000/svg">
<path d="M10 20V51.5441C10 57.1096 12.9199 60 18.5217 60H51.4783C57.0801 60 60 57.1096 60 51.5441V20C60 17 58.3685 14.9667 56 14.0257C51.947 12.4153 44.8667 10 35 10C25.9003 10 19.1706 12.0544 15 13.637C12.2846 14.6674 10 16 10 20Z" stroke="#FE4954" stroke-width="2"/>
<path d="M35 16C28.5844 16.0684 22.2544 17.4989 16.4189 20.1988C15.8776 20.4084 15.4395 20.8251 15.199 21.3589C14.9585 21.8928 14.9351 22.501 15.1336 23.0522L18.8603 32.208C19.4344 33.6185 21.0763 34.3116 22.5781 33.8658C26.6044 32.6705 30.7837 32.0373 35 31.9923C39.2163 32.0373 43.3956 32.6705 47.4219 33.8658C48.9237 34.3116 50.5656 33.6185 51.1397 32.208L54.8664 23.0522C55.0649 22.501 55.0415 21.8928 54.801 21.3589C54.5605 20.8251 54.1224 20.4084 53.5811 20.1988C47.7456 17.4989 41.4156 16.0684 35 16Z" fill="#E7E7E7"/>
<path d="M27.7264 31.5946C28.3976 31.4838 28.7857 30.7601 28.489 30.1479L25.5605 24.105C25.1106 23.1766 23.7202 23.4548 23.6622 24.4849L23.2848 31.1895C23.2466 31.8687 23.8832 32.3873 24.5453 32.2313C25.5985 31.9832 26.6594 31.7708 27.7264 31.5946Z" fill="#31353E"/>
<path d="M33.4449 54.2296C34.2324 55.2568 35.8708 55.2568 36.6581 54.2296L42.6237 47.3166C43.7229 45.8826 42.2386 43.968 40.4324 44.4899L37.9616 45.1724L37.9616 38.6207C37.9616 37.0965 36.6356 36 35 36C33.3644 36 32.0384 37.0965 32.0384 38.6207L32.0384 45.0934L29.5315 44.345C27.733 43.8599 26.2876 45.7619 27.3758 47.1817L33.4449 54.2296Z" fill="#FE4954"/>
</svg>
