<svg width="70" height="70" viewBox="0 0 70 70" fill="none" xmlns="http://www.w3.org/2000/svg">
<circle cx="35.137" cy="15" r="5" fill="#97969E"/>
<path d="M39 23C38 27 38 36.5 38 36.5C38 36.5 37.9449 40.0295 37.9575 43.527C38 44.5137 38 45.669 38 47C38.1045 51.2945 38 58 38 58V47C37.9743 45.9447 37.9618 44.7378 37.9575 43.527C37.8243 40.4364 37.274 39 35 39C32.2689 39 32.0241 41.4864 32.0022 45.7046C32.0016 46.1536 32.0009 46.5883 32 47V58C32 58 31.9907 51.3002 32 47C32 46.5519 32 46.1199 32.0022 45.7046C32.0072 41.6766 32 36.5 32 36.5C32 36.5 32 27 31 23C33.6263 22.3434 36.3737 22.3434 39 23Z" fill="#97969E"/>
<path d="M43.5 39C43.5 39 43.5 24 39 23M38 36.5L35 39M38 36.5C38 36.5 38 27 39 23M38 36.5C38 36.5 37.9001 42.8961 38 47M39 23V23C36.3737 22.3434 33.6263 22.3434 31 23V23M35 39L32 36.5M35 39C32 39 32 42 32 47M35 39C38 39 38 41.5 38 47M26.5 39C26.5 39 26.5 24 31 23M32 36.5C32 36.5 32 27 31 23M32 36.5C32 36.5 32.0089 42.8949 32 47M32 47C31.9907 51.3002 32 58 32 58C32 58 32 52 32 47ZM38 47C38.1045 51.2945 38 58 38 58C38 58 38 52.5 38 47Z" stroke="#97969E" stroke-width="4" stroke-linecap="round" stroke-linejoin="round"/>
</svg>
