<svg width="70" height="70" viewBox="0 0 70 70" fill="none" xmlns="http://www.w3.org/2000/svg">
<circle cx="47.3533" cy="21" r="5" fill="#97969E"/>
<path d="M37.172 41.5257L43.5137 35.0818L39.9827 28.3442C36.7984 29.9331 34.2414 33.467 33.9028 37.8697L38.4244 48.0703L40.2109 59.1907L37.172 48.6714L30.0177 38.4348L20.6846 59.1907L26.8 37.8697C28.2732 29.1372 31.7654 24.0934 34.5537 22.4204C34.5537 22.4204 34.9261 18.3977 37.1004 14.2656C37.1473 14.1764 37.2099 14.0932 37.2821 14.0228C41.0548 10.3408 43.2609 9.78313 47.3533 9.13086C42.9464 10.5861 40.239 10.8549 38.1536 15.1677C37.3574 17.2413 37.3988 19.6255 37.6957 21.6478C38.0474 21.7999 38.3584 22.0541 38.5802 22.3971L41.9639 27.631L44.2154 35.0818L37.172 41.5257Z" fill="#97969E"/>
<path d="M26.8 37.8697L30.0177 38.4348M26.8 37.8697L20.6846 59.1907L30.0177 38.4348M26.8 37.8697C28.2732 29.1372 31.7654 24.0934 34.5537 22.4204M33.9028 37.8697L30.0177 38.4348M33.9028 37.8697C34.3094 32.5829 37.9148 28.549 41.9639 27.631M33.9028 37.8697L38.4244 48.0703L40.2109 59.1907L37.172 48.6714L30.0177 38.4348M34.5537 22.4204C34.5537 22.4204 34.9261 18.3977 37.1004 14.2656C37.1473 14.1764 37.2099 14.0932 37.2821 14.0228C41.0548 10.3408 43.2609 9.78313 47.3533 9.13086C42.9464 10.5861 40.239 10.8549 38.1536 15.1677C36.3402 19.8904 38.8717 26.2242 38.8717 26.2242L43.5137 35.0818L37.172 41.5257L44.2154 35.0818L41.9639 27.631M34.5537 22.4204L36.0062 21.6942C36.9179 21.2383 38.0267 21.5411 38.5802 22.3971L41.9639 27.631" stroke="#97969E" stroke-width="4" stroke-linecap="round" stroke-linejoin="round"/>
</svg>
