<svg width="70" height="70" viewBox="0 0 70 70" fill="none" xmlns="http://www.w3.org/2000/svg">
<circle cx="41.137" cy="15" r="5" fill="#97969E"/>
<path d="M53.2995 21.4624L48.1045 29.8341L40.4117 25.361C38.2588 30.3183 35.9971 32.8946 33.5397 38.3641C36.4268 40.8587 38.0538 43.1246 40.7348 46.7147C40.9669 47.0255 40.9994 47.4448 40.8158 47.7863C38.6457 51.8233 37.2275 54.0154 34.703 57.6296C36.9869 53.7095 38.0916 50.5405 39.6666 47.471C37.4683 44.3125 35.2704 43.6348 32.0813 40.8838C29.7022 44.6779 28.2247 46.6813 25.3912 50.0922L17 57.9274L24.0481 49.7542C27.0655 45.9283 27.3902 43.0096 29.6072 38.7352L29.5535 38.5672C29.184 37.4103 29.2482 36.1584 29.7342 35.0453L34.6003 23.8998L27.1037 24.1095L21.9303 31.6209L26.839 23.183L35.5634 21.694C37.5047 21.5029 39.453 21.9814 41.0849 23.05L41.288 23.183L47.8398 28.6428L53.2995 21.4624Z" fill="#97969E"/>
<path d="M29.6072 38.7352C27.3902 43.0096 27.0655 45.9283 24.0481 49.7542L17 57.9274L25.3912 50.0922C28.2247 46.6813 29.7022 44.6779 32.0813 40.8838M29.6072 38.7352L29.5535 38.5672C29.184 37.4103 29.2482 36.1584 29.7342 35.0453L35.5634 21.694M29.6072 38.7352L32.0813 40.8838M33.5397 38.3641C36.4268 40.8587 38.0538 43.1246 40.7348 46.7147C40.9669 47.0255 40.9994 47.4448 40.8158 47.7863C38.6457 51.8233 37.2275 54.0154 34.703 57.6296C36.9869 53.7095 38.0916 50.5405 39.6666 47.471C37.4683 44.3125 35.2704 43.6348 32.0813 40.8838M33.5397 38.3641L32.0813 40.8838M33.5397 38.3641C36.3328 32.1475 38.873 29.6685 41.288 23.183M35.5634 21.694L26.839 23.183L21.9303 31.6209L27.1037 24.1095L37.7473 23.8117L48.1045 29.8341L53.2995 21.4624L47.8398 28.6428L41.288 23.183M35.5634 21.694V21.694C37.5047 21.5029 39.453 21.9814 41.0849 23.05L41.288 23.183" stroke="#97969E" stroke-width="4" stroke-linecap="round" stroke-linejoin="round"/>
</svg>
