<svg width="70" height="70" viewBox="0 0 70 70" fill="none" xmlns="http://www.w3.org/2000/svg">
<circle cx="43.801" cy="16" r="5" fill="#97969E"/>
<path d="M6.77806 30.6474C25.8526 29.1619 29.0934 19.6249 39.6953 23.0508L33.036 28.5429L17.0444 42.3696C14.321 42.3696 12.8012 41.6427 11.4292 37.3124C10.8019 35.3325 10.0866 33.1408 7.1137 33.908C4.14081 34.6752 3.57512 30.8968 6.77806 30.6474Z" fill="#97969E"/>
<path d="M62.5001 21.4999L49.415 24.5801L44.7277 26.14L45.201 27.2298C43.7499 32.9687 38.3767 32.9169 32.9556 40.0911L44.2927 42.2936C45.1296 42.4561 45.3923 43.5243 44.7262 44.0564L34.6313 52.1223L43.5056 43.6109L30.0848 42.3035L20.9447 52.3734L12.0295 61.0332L19.3459 51.8931L27.732 40.5012C27.6419 39.3542 28.003 38.2173 28.7383 37.3324L37.0265 27.3584L31.4467 26.9205L24.3812 32.2789L31.1102 26.0175L39.1244 24.8337L43.9942 24.4513L62.5001 21.4999Z" fill="#97969E"/>
<path d="M27.732 40.5012L19.3459 51.8931L12.0295 61.0332L20.9447 52.3734L30.0848 42.3035M27.732 40.5012V40.5012C27.6419 39.3542 28.003 38.2173 28.7383 37.3324L39.1244 24.8337M27.732 40.5012L30.0848 42.3035M32.9556 40.0911L44.2927 42.2936C45.1296 42.4561 45.3923 43.5243 44.7262 44.0564L34.6313 52.1223L43.5056 43.6109L30.0848 42.3035M32.9556 40.0911L30.0848 42.3035M32.9556 40.0911C38.3767 32.9169 43.7499 32.9687 45.201 27.2298L43.9942 24.4513M43.9942 24.4513L62.5001 21.4999L49.415 24.5801L40.2954 27.615L31.4467 26.9205L24.3812 32.2789L31.1102 26.0175L39.1244 24.8337M43.9942 24.4513L39.1244 24.8337" stroke="#97969E" stroke-width="4" stroke-linecap="round" stroke-linejoin="round"/>
</svg>
