<svg width="40" height="40" viewBox="0 0 40 40" fill="none" xmlns="http://www.w3.org/2000/svg">
<rect width="40" height="40" rx="20" fill="#F1F4FF"/>
<path fill-rule="evenodd" clip-rule="evenodd" d="M20.5208 17.405L20.5544 17.9586L19.9948 17.8908C17.9579 17.631 16.1784 16.7497 14.6676 15.2695L13.9289 14.5351L13.7387 15.0775C13.3358 16.2864 13.5932 17.5632 14.4325 18.4219C14.8802 18.8964 14.7795 18.9642 14.0073 18.6818C13.7387 18.5914 13.5036 18.5236 13.4812 18.5575C13.4029 18.6366 13.6715 19.6647 13.8841 20.0715C14.1751 20.6364 14.7683 21.1901 15.4174 21.5177L15.9658 21.7776L15.3167 21.7889C14.6899 21.7889 14.6676 21.8002 14.7347 22.0375C14.9585 22.7719 15.8427 23.5515 16.8276 23.8905L17.5214 24.1277L16.9171 24.4893C16.0218 25.009 14.9697 25.3028 13.9177 25.3254C13.4141 25.3367 13 25.3819 13 25.4158C13 25.5288 14.3654 26.1615 15.16 26.4101C17.5438 27.1445 20.3753 26.8281 22.5017 25.574C24.0126 24.6814 25.5235 22.9075 26.2286 21.1901C26.6091 20.2749 26.9896 18.6027 26.9896 17.8005C26.9896 17.2807 27.0232 17.2129 27.6499 16.5915C28.0192 16.2299 28.3662 15.8345 28.4333 15.7215C28.5452 15.5068 28.534 15.5068 27.9633 15.6989C27.012 16.0379 26.8777 15.9927 27.3477 15.4842C27.6947 15.1227 28.1088 14.4673 28.1088 14.2753C28.1088 14.2414 27.9409 14.2979 27.7506 14.3995C27.5492 14.5125 27.1015 14.682 26.7658 14.7837L26.1614 14.9758L25.613 14.6029C25.3108 14.3995 24.8856 14.1736 24.6617 14.1058C24.0909 13.9476 23.218 13.9702 22.7032 14.151C21.3042 14.6594 20.4201 15.9701 20.5208 17.405Z" fill="#366EFF"/>
</svg>
