<svg width="70" height="70" viewBox="0 0 70 70" fill="none" xmlns="http://www.w3.org/2000/svg">
<path d="M10 20V51.5441C10 57.1096 12.9199 60 18.5217 60H51.4783C57.0801 60 60 57.1096 60 51.5441V20C60 17 58.3685 14.9667 56 14.0257C51.947 12.4153 44.8667 10 35 10C25.9003 10 19.1706 12.0544 15 13.637C12.2846 14.6674 10 16 10 20Z" stroke="#FE4954" stroke-width="2"/>
<path d="M35 16C41.4156 16.0684 47.7456 17.4989 53.5811 20.1988C54.1224 20.4084 54.5605 20.8251 54.801 21.3589C55.0415 21.8928 55.0649 22.501 54.8664 23.0522L51.1397 32.208C50.5656 33.6185 48.9237 34.3116 47.4219 33.8658C43.3956 32.6705 39.2163 32.0373 35 31.9923C30.7837 32.0373 26.6044 32.6705 22.5781 33.8658C21.0763 34.3116 19.4344 33.6185 18.8603 32.208L15.1336 23.0522C14.9351 22.501 14.9585 21.8928 15.199 21.3589C15.4395 20.8251 15.8776 20.4084 16.4189 20.1988C22.2544 17.4989 28.5844 16.0684 35 16Z" fill="#E7E7E7"/>
<path d="M42.2736 31.5946C41.6024 31.4838 41.2143 30.7601 41.511 30.1479L44.4395 24.105C44.8894 23.1766 46.2798 23.4548 46.3378 24.4849L46.7152 31.1895C46.7534 31.8687 46.1168 32.3873 45.4547 32.2313C44.4015 31.9832 43.3406 31.7708 42.2736 31.5946Z" fill="#31353E"/>
<path d="M33.4449 36.7704C34.2324 35.7432 35.8708 35.7432 36.6581 36.7704L42.6237 43.6834C43.7229 45.1174 42.2386 47.032 40.4324 46.5101L37.9616 45.8276L37.9616 52.3793C37.9616 53.9035 36.6356 55 35 55C33.3644 55 32.0384 53.9035 32.0384 52.3793L32.0384 45.9066L29.5315 46.655C27.733 47.1401 26.2876 45.2381 27.3758 43.8183L33.4449 36.7704Z" fill="#FE4954"/>
</svg>
