<svg width="70" height="70" viewBox="0 0 70 70" fill="none" xmlns="http://www.w3.org/2000/svg">
<path d="M10 20V51.5441C10 57.1096 12.9199 60 18.5217 60H51.4783C57.0801 60 60 57.1096 60 51.5441V20C60 17 58.3685 14.9667 56 14.0257C51.947 12.4153 44.8667 10 35 10C25.9003 10 19.1706 12.0544 15 13.637C12.2846 14.6674 10 16 10 20Z" fill="white" stroke="#FE4954" stroke-width="2"/>
<path d="M35 16C28.5844 16.0684 22.2544 17.4989 16.4189 20.1988C15.8776 20.4084 15.4395 20.8251 15.199 21.3589C14.9585 21.8928 14.9351 22.501 15.1336 23.0522L18.8603 32.208C19.4344 33.6185 21.0763 34.3116 22.5781 33.8658C26.6044 32.6705 30.7837 32.0373 35 31.9923C39.2163 32.0373 43.3956 32.6705 47.4219 33.8658C48.9237 34.3116 50.5656 33.6185 51.1397 32.208L54.8664 23.0522C55.0649 22.501 55.0415 21.8928 54.801 21.3589C54.5605 20.8251 54.1224 20.4084 53.5811 20.1988C47.7456 17.4989 41.4156 16.0684 35 16Z" fill="#E7E7E7"/>
<path fill-rule="evenodd" clip-rule="evenodd" d="M28.4481 37.9772C28.9004 38.4296 28.9004 39.1629 28.4481 39.6152C27.9957 40.0676 27.2624 40.0676 26.81 39.6152L25.172 37.9772C24.7197 37.5249 24.7197 36.7916 25.172 36.3392C25.6244 35.8869 26.3577 35.8869 26.81 36.3392L28.4481 37.9772ZM41.552 39.6152C41.0997 39.1629 41.0997 38.4296 41.552 37.9772L43.19 36.3392C43.6423 35.8869 44.3757 35.8869 44.828 36.3392C45.2803 36.7916 45.2803 37.5249 44.828 37.9772L43.19 39.6152C42.7377 40.0676 42.0043 40.0676 41.552 39.6152ZM35 50.275C37.0554 50.275 38.7216 48.6087 38.7216 46.5534C38.7216 44.498 37.0554 42.8317 35 42.8317C32.9446 42.8317 31.2784 44.498 31.2784 46.5534C31.2784 48.6087 32.9446 50.275 35 50.275ZM35 54.275C39.2646 54.275 42.7216 50.8179 42.7216 46.5534C42.7216 42.2888 39.2646 38.8317 35 38.8317C30.7355 38.8317 27.2784 42.2888 27.2784 46.5534C27.2784 50.8179 30.7355 54.275 35 54.275ZM25.172 55.9953C24.7197 55.543 24.7197 54.8096 25.172 54.3573L26.81 52.7193C27.2623 52.2669 27.9957 52.2669 28.448 52.7193C28.9003 53.1716 28.9003 53.9049 28.448 54.3573L26.81 55.9953C26.3577 56.4476 25.6243 56.4476 25.172 55.9953ZM44.828 54.3573C45.2804 54.8096 45.2804 55.543 44.828 55.9953C44.3757 56.4476 43.6424 56.4476 43.19 55.9953L41.552 54.3573C41.0997 53.9049 41.0997 53.1716 41.552 52.7193C42.0043 52.2669 42.7377 52.2669 43.19 52.7193L44.828 54.3573Z" fill="#FE4954"/>
<path d="M33.3915 31.0102C32.7116 31.0354 32.1871 30.4036 32.3558 29.7445L34.021 23.2391C34.2768 22.2397 35.6948 22.2352 35.957 23.233L37.6632 29.7279C37.836 30.3859 37.3156 31.0209 36.6357 31C35.5541 30.9668 34.4722 30.9702 33.3915 31.0102Z" fill="#31353E"/>
</svg>
