<svg width="70" height="70" viewBox="0 0 70 70" fill="none" xmlns="http://www.w3.org/2000/svg">
<circle cx="43.7761" cy="16" r="5" fill="#97969E"/>
<circle cx="21.5" cy="52.5" r="7.5" stroke="#97969E" stroke-width="2"/>
<circle cx="46.5503" cy="56" r="3" stroke="#97969E" stroke-width="4"/>
<path d="M23.0131 44.1931C28.0351 45.5753 39.9842 48.8773 47.9141 51.1836L46.4492 61H21.5L29 55.5L28.1906 48.9573L23.0131 44.1931Z" fill="#97969E"/>
<path d="M54.2366 30.2998L50.6991 31.8153M46.7825 33.6473L50.6991 31.8153M50.6991 31.8153C55.5001 41.67 53.9208 49.7556 46.2771 56.0096" stroke="#97969E" stroke-width="4" stroke-linecap="round"/>
<path d="M49.7638 26.1908L42.2061 29.6149C38.5821 27.0934 36.9776 24.9923 34.9018 22.5783C30.7481 24.6133 26.0457 24.8821 21.4999 29.4999C24.4434 30.1567 27.6567 31.8919 31.93 34.5835C32.2525 34.7867 32.4313 35.155 32.3864 35.5336C32.057 38.3124 31.3131 43.5427 31.3131 43.5427C31.3131 43.5427 31.5894 37.2041 31.5894 35.114C27.7339 32.5522 24.9607 33.4245 20.0917 31.284C21.3512 35.0057 23.9162 38.0217 23.9573 42.0965C23.9591 42.2745 23.9311 42.452 23.8812 42.6228L20.9999 52.4999L22.9705 40.4725C21.0166 35.4281 17.3668 33.9357 16.9964 29.6012C16.9107 28.5989 17.3312 27.6308 17.9983 26.8779C22.1822 22.1556 26.494 20.036 31.5894 18.9392L31.6897 18.9195C33.7983 18.5071 35.939 19.4612 37.042 21.305C38.9237 23.2792 39.7814 26.5683 42.2061 29.1149L49.7638 26.1908Z" fill="#97969E"/>
<path d="M21.4999 29.4999C24.4434 30.1567 27.6567 31.8919 31.93 34.5835C32.2525 34.7867 32.4313 35.155 32.3864 35.5336C32.057 38.3124 31.3131 43.5427 31.3131 43.5427C31.3131 43.5427 31.5894 37.2041 31.5894 35.114C27.7339 32.5522 24.9607 33.4245 20.0917 31.284M21.4999 29.4999L20.0917 31.284M21.4999 29.4999C26.8465 24.0686 32.4098 24.6536 37.042 21.305M31.5894 18.9392L31.6897 18.9195C33.7983 18.5071 35.939 19.4612 37.042 21.305V21.305M31.5894 18.9392C26.494 20.036 22.1822 22.1556 17.9983 26.8779C17.3312 27.6308 16.9107 28.5989 16.9964 29.6012C17.3668 33.9357 21.0166 35.4281 22.9705 40.4725L20.9999 52.4999L23.8812 42.6228C23.9311 42.452 23.9591 42.2745 23.9573 42.0965C23.9162 38.0217 21.3512 35.0057 20.0917 31.284M31.5894 18.9392L33.4999 20.9999C36.3898 24.1234 37.8166 26.5608 42.2061 29.6149L49.7638 26.1908L42.2061 29.1149C39.7814 26.5683 38.9237 23.2792 37.042 21.305" stroke="#97969E" stroke-width="4" stroke-linecap="round" stroke-linejoin="round"/>
</svg>
