<svg width="21" height="24" viewBox="0 0 21 24" fill="none" xmlns="http://www.w3.org/2000/svg">
<path d="M0.739524 1.1474C0.486936 1.4174 0.338867 1.83548 0.338867 2.36679V21.6332C0.338867 22.1732 0.486936 22.5913 0.739524 22.8526L0.800495 22.9135L11.5921 12.1306V12V11.8693L0.800495 1.08643L0.739524 1.1474Z" fill="url(#paint0_linear)"/>
<path d="M15.189 15.7279L11.5918 12.1307V12.0001V11.8694L15.189 8.27222L15.2674 8.31577L19.5265 10.7371C20.7459 11.4252 20.7459 12.5575 19.5265 13.2543L15.2674 15.6757L15.189 15.7279Z" fill="url(#paint1_linear)"/>
<path d="M15.2674 15.6843L11.5918 12L0.739258 22.8526C1.13991 23.2794 1.80187 23.3316 2.55093 22.9048L15.2674 15.6843Z" fill="url(#paint2_linear)"/>
<path d="M15.2683 8.32445L2.54311 1.09521C1.79406 0.668419 1.1321 0.720679 0.731445 1.14747L11.5927 12L15.2683 8.32445Z" fill="url(#paint3_linear)"/>
<path opacity="0.2" d="M15.189 15.5972L2.54222 22.7829C1.83671 23.1835 1.20089 23.1574 0.800228 22.7916L0.739258 22.8525L0.800228 22.9135C1.2096 23.2793 1.83671 23.3055 2.54222 22.9048L15.2674 15.6756L15.189 15.5972Z" fill="#31353E"/>
<path opacity="0.12" d="M0.739524 22.7306C0.486936 22.4606 0.338867 22.0425 0.338867 21.5112V21.6419C0.338867 22.1819 0.486936 22.6 0.739524 22.8613L0.800494 22.8003L0.739524 22.7306Z" fill="#31353E"/>
<path opacity="0.12" d="M19.5269 13.1323L15.1807 15.5972L15.2591 15.6756L19.5182 13.2542C20.1279 12.9058 20.4328 12.4529 20.4328 12C20.3892 12.4094 20.0844 12.8187 19.5269 13.1323Z" fill="#31353E"/>
<path opacity="0.25" d="M2.5424 1.21871L19.5268 10.8693C20.0755 11.1829 20.3891 11.5835 20.4413 12.0016C20.4413 11.5487 20.1365 11.0871 19.5268 10.7474L2.5424 1.09677C1.32301 0.408684 0.330078 0.98354 0.330078 2.37713V2.50778C0.330078 1.10548 1.33172 0.530623 2.5424 1.21871Z" fill="white"/>
<defs>
<linearGradient id="paint0_linear" x1="10.6337" y1="2.16628" x2="-3.9837" y2="16.7837" gradientUnits="userSpaceOnUse">
<stop stop-color="#00A0FF"/>
<stop offset="0.00657445" stop-color="#00A1FF"/>
<stop offset="0.2601" stop-color="#00BEFF"/>
<stop offset="0.5122" stop-color="#00D2FF"/>
<stop offset="0.7604" stop-color="#00DFFF"/>
<stop offset="1" stop-color="#00E3FF"/>
</linearGradient>
<linearGradient id="paint1_linear" x1="21.1155" y1="12.0014" x2="0.0401602" y2="12.0014" gradientUnits="userSpaceOnUse">
<stop stop-color="#FFE000"/>
<stop offset="0.4087" stop-color="#FFBD00"/>
<stop offset="0.7754" stop-color="#FFA500"/>
<stop offset="1" stop-color="#FF9C00"/>
</linearGradient>
<linearGradient id="paint2_linear" x1="13.2702" y1="14" x2="-6.55218" y2="33.8223" gradientUnits="userSpaceOnUse">
<stop stop-color="#FF3A44"/>
<stop offset="1" stop-color="#C31162"/>
</linearGradient>
<linearGradient id="paint3_linear" x1="-1.9972" y1="-5.26627" x2="6.85436" y2="3.5852" gradientUnits="userSpaceOnUse">
<stop stop-color="#32A071"/>
<stop offset="0.0685" stop-color="#2DA771"/>
<stop offset="0.4762" stop-color="#15CF74"/>
<stop offset="0.8009" stop-color="#06E775"/>
<stop offset="1" stop-color="#00F076"/>
</linearGradient>
</defs>
</svg>
