<svg width="70" height="70" viewBox="0 0 70 70" fill="none" xmlns="http://www.w3.org/2000/svg">
<path fill-rule="evenodd" clip-rule="evenodd" d="M42.5001 10C44.9853 10 47.0001 7.98528 47.0001 5.5C47.0001 3.01472 44.9853 1 42.5001 1C40.0148 1 38.0001 3.01472 38.0001 5.5C38.0001 7.98528 40.0148 10 42.5001 10ZM24.5001 65C26.9853 65 29.0001 62.9853 29.0001 60.5C29.0001 58.0147 26.9853 56 24.5001 56C22.0148 56 20.0001 58.0147 20.0001 60.5C20.0001 62.9853 22.0148 65 24.5001 65ZM55.0001 61.5C55.0001 63.9853 52.9853 66 50.5001 66C48.0148 66 46.0001 63.9853 46.0001 61.5C46.0001 59.0147 48.0148 57 50.5001 57C52.9853 57 55.0001 59.0147 55.0001 61.5ZM31.0001 14C32.6569 14 34.0001 12.6569 34.0001 11C34.0001 9.34315 32.6569 8 31.0001 8C29.3432 8 28.0001 9.34315 28.0001 11C28.0001 12.6569 29.3432 14 31.0001 14ZM67.0001 30C67.0001 31.6569 65.6569 33 64.0001 33C62.3432 33 61.0001 31.6569 61.0001 30C61.0001 28.3431 62.3432 27 64.0001 27C65.6569 27 67.0001 28.3431 67.0001 30ZM50.0001 56C51.6569 56 53.0001 54.6569 53.0001 53C53.0001 52.4974 52.8764 52.0236 52.658 51.6075C56.1578 50.0748 59.9979 47.5509 62.6338 42.58C64.242 39.5474 63.7361 35.8268 61.3767 33.3335C59.0173 30.8402 55.3303 30.1301 52.2136 31.5685C51.582 31.86 50.969 32.133 50.3729 32.389C51.2222 31.7415 52.0845 31.0891 52.9656 30.4228L53.186 30.2561L53.1861 30.2561C56.2733 27.9216 59.5757 25.4245 63.1225 22.5315C63.6004 22.1418 64.198 21.6237 64.7527 21.0124C65.0304 20.7062 65.4307 20.2319 65.8151 19.6133C66.1473 19.0787 66.8136 17.8951 67.0292 16.2417C67.285 14.2803 66.8566 11.7594 64.9762 9.69546C63.3761 7.93923 61.4984 7.38793 60.622 7.19773C58.9656 6.83828 57.5324 7.06795 57.1164 7.13462L57.1033 7.13672C55.1137 7.45519 52.4125 8.46926 50.4184 9.25066C45.8251 11.0505 39.9904 13.6758 37.609 14.7545C35.0055 15.9339 32.5395 16.1455 28.4517 16.4952C24.5805 16.8263 19.2711 17.2969 13.7425 20.3051C9.86149 22.4168 8.42722 27.2748 10.5389 31.1558C12.5152 34.7879 16.8968 36.277 20.6318 34.7221C17.8904 36.5433 15.0717 38.3461 12.1831 40.1876L12.1808 40.1889L12.0812 40.2441C11.9755 40.3027 11.8238 40.3868 11.6833 40.4654C11.2528 40.7065 10.6572 41.0469 9.99452 41.4597C8.8 42.2037 6.86872 43.4961 5.28548 45.2144C5.05872 45.4605 4.51647 46.0647 4.03506 46.9305L4.02231 46.9533C3.79825 47.3507 1.97027 50.5935 3.79513 54.3896C5.88442 58.7357 10.2257 58.9312 10.7546 58.9533C11.8776 59.0003 12.7658 58.8013 13.0698 58.7309C14.2336 58.4611 15.4129 57.9233 15.8528 57.7226L15.8529 57.7226L15.8901 57.7056C16.5542 57.4031 17.237 57.0669 17.7092 56.833L17.9433 56.7169L18.1556 56.6117C21.6221 55.3602 24.5451 54.5622 27.2356 53.9896C27.4478 54.4479 27.7067 54.8927 28.0133 55.3175C30.5992 58.9 35.5997 59.7079 39.1822 57.1221C41.6444 55.3449 43.9121 54.6084 47.06 53.5999C47.338 54.9693 48.5487 56 50.0001 56ZM46.0001 58C46.0001 59.1046 45.1046 60 44.0001 60C42.8955 60 42.0001 59.1046 42.0001 58C42.0001 56.8954 42.8955 56 44.0001 56C45.1046 56 46.0001 56.8954 46.0001 58ZM18.4262 56.4804C18.4244 56.4816 18.3997 56.4935 18.3578 56.5126C18.4071 56.4889 18.428 56.4793 18.4262 56.4804Z" fill="#FFF0F3"/>
<circle cx="50.729" cy="16" r="5" fill="#FE4954"/>
<path d="M63.6884 27.2707L54.7611 32.2569C52.1617 29.7806 50.1165 28.4681 47.8122 27.2203C44.8168 31.6202 42.1015 34.191 38.5034 39.1983C41.7313 42.5739 42.9889 45.4787 45.4359 49.8523C45.7225 50.3646 45.5155 51.015 44.9825 51.2609L34.1198 56.2724L44.0337 50.8034C41.7712 46.8367 40.156 44.886 36.8689 41.7237L26.9874 51.4073L18.1787 59.0081L25.4311 50.8034L34.3666 39.1983C33.9719 38.3969 33.9874 37.4545 34.4081 36.6666L41.0737 24.1843C38.9515 23.6699 36.995 23.5322 34.186 23.4589L26.9874 28.2153L34.186 22.5L42.2682 21.9473C44.7973 21.9473 47.2361 22.8874 49.1107 24.5851L49.3609 24.8117L54.4964 31.0656L63.6884 27.2707Z" fill="#FE4954"/>
<path d="M34.3666 39.1983L25.4311 50.8034L18.1787 59.0081L26.9874 51.4073L36.8689 41.7237M34.3666 39.1983V39.1983C33.9719 38.3969 33.9874 37.4545 34.4081 36.6666L42.2682 21.9473M34.3666 39.1983L36.8689 41.7237M38.5034 39.1983C41.7313 42.5739 42.9889 45.4787 45.4359 49.8523C45.7225 50.3646 45.5155 51.015 44.9825 51.2609L34.1198 56.2724L44.0337 50.8034C41.7712 46.8367 40.156 44.886 36.8689 41.7237M38.5034 39.1983L36.8689 41.7237M38.5034 39.1983C42.7097 33.3445 45.7096 30.8207 49.3609 24.8117M42.2682 21.9473L34.186 22.5L26.9874 28.2153L34.186 23.4589C37.903 23.5559 40.1271 23.7656 43.2178 24.8117C47.865 27.3131 50.6047 28.2973 54.7611 32.2569L63.6884 27.2707L54.4964 31.0656L49.3609 24.8117M42.2682 21.9473V21.9473C44.7973 21.9473 47.2361 22.8874 49.1107 24.5851L49.3609 24.8117" stroke="#FE4954" stroke-width="4" stroke-linecap="round" stroke-linejoin="round"/>
<line x1="39.9336" y1="15.7971" x2="22.5921" y2="15.7971" stroke="#FE4954" stroke-width="2" stroke-linecap="round"/>
<line x1="29.0137" y1="37.9751" x2="14.5908" y2="37.9751" stroke="#FE4954" stroke-width="2" stroke-linecap="round"/>
<line x1="20.8022" y1="45.9104" x2="10.9839" y2="45.9104" stroke="#FE4954" stroke-width="2" stroke-linecap="round"/>
<line x1="19.9849" y1="27" x2="8.99988" y2="27" stroke="#FE4954" stroke-width="2" stroke-linecap="round"/>
</svg>
