<svg width="70" height="70" viewBox="0 0 70 70" fill="none" xmlns="http://www.w3.org/2000/svg">
<circle cx="50.729" cy="16" r="5" fill="#97969E"/>
<path d="M63.6884 27.2707L54.7611 32.2569C52.1617 29.7806 50.1165 28.4681 47.8122 27.2203C44.8168 31.6202 42.1015 34.191 38.5034 39.1983C41.7313 42.5739 42.9889 45.4787 45.4359 49.8523C45.7225 50.3646 45.5155 51.015 44.9825 51.2609L34.1198 56.2724L44.0337 50.8034C41.7712 46.8367 40.156 44.886 36.8689 41.7237L26.9874 51.4073L18.1787 59.0081L25.4311 50.8034L34.3666 39.1983C33.9719 38.3969 33.9874 37.4545 34.4081 36.6666L41.0737 24.1843C38.9515 23.6699 36.995 23.5322 34.186 23.4589L26.9874 28.2153L34.186 22.5L42.2682 21.9473C44.7973 21.9473 47.2361 22.8874 49.1107 24.5851L49.3609 24.8117L54.4964 31.0656L63.6884 27.2707Z" fill="#97969E"/>
<path d="M34.3666 39.1983L25.4311 50.8034L18.1787 59.0081L26.9874 51.4073L36.8689 41.7237M34.3666 39.1983V39.1983C33.9719 38.3969 33.9874 37.4545 34.4081 36.6666L42.2682 21.9473M34.3666 39.1983L36.8689 41.7237M38.5034 39.1983C41.7313 42.5739 42.9889 45.4787 45.4359 49.8523C45.7225 50.3646 45.5155 51.015 44.9825 51.2609L34.1198 56.2724L44.0337 50.8034C41.7712 46.8367 40.156 44.886 36.8689 41.7237M38.5034 39.1983L36.8689 41.7237M38.5034 39.1983C42.7097 33.3445 45.7096 30.8207 49.3609 24.8117M42.2682 21.9473L34.186 22.5L26.9874 28.2153L34.186 23.4589C37.903 23.5559 40.1271 23.7656 43.2178 24.8117C47.865 27.3131 50.6047 28.2973 54.7611 32.2569L63.6884 27.2707L54.4964 31.0656L49.3609 24.8117M42.2682 21.9473V21.9473C44.7973 21.9473 47.2361 22.8874 49.1107 24.5851L49.3609 24.8117" stroke="#97969E" stroke-width="4" stroke-linecap="round" stroke-linejoin="round"/>
<line x1="39.9336" y1="15.7971" x2="22.5921" y2="15.7971" stroke="#97969E" stroke-width="2" stroke-linecap="round"/>
<line x1="29.0137" y1="37.9751" x2="14.5908" y2="37.9751" stroke="#97969E" stroke-width="2" stroke-linecap="round"/>
<line x1="20.8022" y1="45.9104" x2="10.9839" y2="45.9104" stroke="#97969E" stroke-width="2" stroke-linecap="round"/>
<line x1="19.9849" y1="27" x2="8.99988" y2="27" stroke="#97969E" stroke-width="2" stroke-linecap="round"/>
</svg>
